<mxfile host="app.diagrams.net" agent="Mozilla/5.0 (X11; CrOS x86_64 14541.0.0) AppleWebKit/537.36 (KHTML, like Gecko) Chrome/130.0.0.0 Safari/537.36" version="25.0.3">
  <diagram name="Page-1" id="7e0a89b8-554c-2b80-1dc8-d5c74ca68de4">
    <mxGraphModel dx="2433" dy="3473" grid="1" gridSize="10" guides="1" tooltips="1" connect="1" arrows="1" fold="1" page="1" pageScale="1" pageWidth="1100" pageHeight="850" background="none" math="0" shadow="0">
      <root>
        <mxCell id="0" />
        <mxCell id="1" parent="0" />
        <mxCell id="7sT3qUHH8tz0WFLtc2-D-3" value="" style="rounded=1;whiteSpace=wrap;html=1;" vertex="1" parent="1">
          <mxGeometry x="100" y="30" width="120" height="1210" as="geometry" />
        </mxCell>
        <mxCell id="7sT3qUHH8tz0WFLtc2-D-7" value="&lt;font style=&quot;font-size: 26px;&quot;&gt;&lt;b&gt;1&lt;/b&gt;&lt;/font&gt;" style="ellipse;whiteSpace=wrap;html=1;aspect=fixed;" vertex="1" parent="1">
          <mxGeometry x="110" y="50" width="45" height="45" as="geometry" />
        </mxCell>
        <mxCell id="7sT3qUHH8tz0WFLtc2-D-8" value="&lt;b&gt;&lt;font style=&quot;font-size: 26px;&quot;&gt;2&lt;/font&gt;&lt;/b&gt;" style="ellipse;whiteSpace=wrap;html=1;aspect=fixed;" vertex="1" parent="1">
          <mxGeometry x="165" y="50" width="45" height="45" as="geometry" />
        </mxCell>
        <mxCell id="7sT3qUHH8tz0WFLtc2-D-12" value="&lt;font style=&quot;font-size: 26px;&quot;&gt;&lt;b&gt;3&lt;/b&gt;&lt;/font&gt;" style="ellipse;whiteSpace=wrap;html=1;aspect=fixed;" vertex="1" parent="1">
          <mxGeometry x="110" y="110" width="45" height="45" as="geometry" />
        </mxCell>
        <mxCell id="7sT3qUHH8tz0WFLtc2-D-52" value="&lt;font style=&quot;font-size: 26px;&quot;&gt;&lt;b&gt;5&lt;/b&gt;&lt;/font&gt;" style="ellipse;whiteSpace=wrap;html=1;aspect=fixed;" vertex="1" parent="1">
          <mxGeometry x="110" y="165" width="45" height="45" as="geometry" />
        </mxCell>
        <mxCell id="7sT3qUHH8tz0WFLtc2-D-53" value="&lt;font style=&quot;font-size: 26px;&quot;&gt;&lt;b&gt;7&lt;/b&gt;&lt;/font&gt;" style="ellipse;whiteSpace=wrap;html=1;aspect=fixed;" vertex="1" parent="1">
          <mxGeometry x="110" y="225" width="45" height="45" as="geometry" />
        </mxCell>
        <mxCell id="7sT3qUHH8tz0WFLtc2-D-54" value="&lt;font style=&quot;font-size: 26px;&quot;&gt;&lt;b&gt;9&lt;/b&gt;&lt;/font&gt;" style="ellipse;whiteSpace=wrap;html=1;aspect=fixed;" vertex="1" parent="1">
          <mxGeometry x="110" y="280" width="45" height="45" as="geometry" />
        </mxCell>
        <mxCell id="7sT3qUHH8tz0WFLtc2-D-55" value="&lt;font style=&quot;font-size: 26px;&quot;&gt;&lt;b&gt;11&lt;/b&gt;&lt;/font&gt;" style="ellipse;whiteSpace=wrap;html=1;aspect=fixed;" vertex="1" parent="1">
          <mxGeometry x="110" y="340" width="45" height="45" as="geometry" />
        </mxCell>
        <mxCell id="7sT3qUHH8tz0WFLtc2-D-56" value="&lt;font style=&quot;font-size: 26px;&quot;&gt;&lt;b&gt;15&lt;/b&gt;&lt;/font&gt;" style="ellipse;whiteSpace=wrap;html=1;aspect=fixed;" vertex="1" parent="1">
          <mxGeometry x="110" y="460" width="45" height="45" as="geometry" />
        </mxCell>
        <mxCell id="7sT3qUHH8tz0WFLtc2-D-57" value="&lt;font style=&quot;font-size: 26px;&quot;&gt;&lt;b&gt;13&lt;/b&gt;&lt;/font&gt;" style="ellipse;whiteSpace=wrap;html=1;aspect=fixed;" vertex="1" parent="1">
          <mxGeometry x="110" y="400" width="45" height="45" as="geometry" />
        </mxCell>
        <mxCell id="7sT3qUHH8tz0WFLtc2-D-58" value="&lt;font style=&quot;font-size: 26px;&quot;&gt;&lt;b&gt;17&lt;/b&gt;&lt;/font&gt;" style="ellipse;whiteSpace=wrap;html=1;aspect=fixed;" vertex="1" parent="1">
          <mxGeometry x="110" y="520" width="45" height="45" as="geometry" />
        </mxCell>
        <mxCell id="7sT3qUHH8tz0WFLtc2-D-59" value="&lt;font style=&quot;font-size: 26px;&quot;&gt;&lt;b&gt;19&lt;/b&gt;&lt;/font&gt;" style="ellipse;whiteSpace=wrap;html=1;aspect=fixed;" vertex="1" parent="1">
          <mxGeometry x="110" y="580" width="45" height="45" as="geometry" />
        </mxCell>
        <mxCell id="7sT3qUHH8tz0WFLtc2-D-60" value="&lt;font style=&quot;font-size: 26px;&quot;&gt;&lt;b&gt;21&lt;/b&gt;&lt;/font&gt;" style="ellipse;whiteSpace=wrap;html=1;aspect=fixed;" vertex="1" parent="1">
          <mxGeometry x="110" y="640" width="45" height="45" as="geometry" />
        </mxCell>
        <mxCell id="7sT3qUHH8tz0WFLtc2-D-61" value="&lt;font style=&quot;font-size: 26px;&quot;&gt;&lt;b&gt;23&lt;/b&gt;&lt;/font&gt;" style="ellipse;whiteSpace=wrap;html=1;aspect=fixed;" vertex="1" parent="1">
          <mxGeometry x="110" y="700" width="45" height="45" as="geometry" />
        </mxCell>
        <mxCell id="7sT3qUHH8tz0WFLtc2-D-62" value="&lt;font style=&quot;font-size: 26px;&quot;&gt;&lt;b&gt;25&lt;/b&gt;&lt;/font&gt;" style="ellipse;whiteSpace=wrap;html=1;aspect=fixed;" vertex="1" parent="1">
          <mxGeometry x="110" y="760" width="45" height="45" as="geometry" />
        </mxCell>
        <mxCell id="7sT3qUHH8tz0WFLtc2-D-63" value="&lt;font style=&quot;font-size: 26px;&quot;&gt;&lt;b&gt;27&lt;/b&gt;&lt;/font&gt;" style="ellipse;whiteSpace=wrap;html=1;aspect=fixed;" vertex="1" parent="1">
          <mxGeometry x="110" y="820" width="45" height="45" as="geometry" />
        </mxCell>
        <mxCell id="7sT3qUHH8tz0WFLtc2-D-64" value="&lt;font style=&quot;font-size: 26px;&quot;&gt;&lt;b&gt;29&lt;/b&gt;&lt;/font&gt;" style="ellipse;whiteSpace=wrap;html=1;aspect=fixed;" vertex="1" parent="1">
          <mxGeometry x="110" y="880" width="45" height="45" as="geometry" />
        </mxCell>
        <mxCell id="7sT3qUHH8tz0WFLtc2-D-65" value="&lt;font style=&quot;font-size: 26px;&quot;&gt;&lt;b&gt;31&lt;/b&gt;&lt;/font&gt;" style="ellipse;whiteSpace=wrap;html=1;aspect=fixed;" vertex="1" parent="1">
          <mxGeometry x="110" y="940" width="45" height="45" as="geometry" />
        </mxCell>
        <mxCell id="7sT3qUHH8tz0WFLtc2-D-66" value="&lt;font style=&quot;font-size: 26px;&quot;&gt;&lt;b&gt;33&lt;/b&gt;&lt;/font&gt;" style="ellipse;whiteSpace=wrap;html=1;aspect=fixed;" vertex="1" parent="1">
          <mxGeometry x="110" y="1000" width="45" height="45" as="geometry" />
        </mxCell>
        <mxCell id="7sT3qUHH8tz0WFLtc2-D-67" value="&lt;font style=&quot;font-size: 26px;&quot;&gt;&lt;b&gt;35&lt;/b&gt;&lt;/font&gt;" style="ellipse;whiteSpace=wrap;html=1;aspect=fixed;" vertex="1" parent="1">
          <mxGeometry x="110" y="1060" width="45" height="45" as="geometry" />
        </mxCell>
        <mxCell id="7sT3qUHH8tz0WFLtc2-D-68" value="&lt;font style=&quot;font-size: 26px;&quot;&gt;&lt;b&gt;37&lt;/b&gt;&lt;/font&gt;" style="ellipse;whiteSpace=wrap;html=1;aspect=fixed;" vertex="1" parent="1">
          <mxGeometry x="110" y="1120" width="45" height="45" as="geometry" />
        </mxCell>
        <mxCell id="7sT3qUHH8tz0WFLtc2-D-69" value="&lt;font style=&quot;font-size: 26px;&quot;&gt;&lt;b&gt;39&lt;/b&gt;&lt;/font&gt;" style="ellipse;whiteSpace=wrap;html=1;aspect=fixed;" vertex="1" parent="1">
          <mxGeometry x="110" y="1180" width="45" height="45" as="geometry" />
        </mxCell>
        <mxCell id="7sT3qUHH8tz0WFLtc2-D-70" value="&lt;font style=&quot;font-size: 26px;&quot;&gt;&lt;b&gt;4&lt;/b&gt;&lt;/font&gt;" style="ellipse;whiteSpace=wrap;html=1;aspect=fixed;" vertex="1" parent="1">
          <mxGeometry x="165" y="110" width="45" height="45" as="geometry" />
        </mxCell>
        <mxCell id="7sT3qUHH8tz0WFLtc2-D-71" value="&lt;font style=&quot;font-size: 26px;&quot;&gt;&lt;b&gt;6&lt;/b&gt;&lt;/font&gt;" style="ellipse;whiteSpace=wrap;html=1;aspect=fixed;" vertex="1" parent="1">
          <mxGeometry x="165" y="165" width="45" height="45" as="geometry" />
        </mxCell>
        <mxCell id="7sT3qUHH8tz0WFLtc2-D-72" value="&lt;font style=&quot;font-size: 26px;&quot;&gt;&lt;b&gt;8&lt;/b&gt;&lt;/font&gt;" style="ellipse;whiteSpace=wrap;html=1;aspect=fixed;" vertex="1" parent="1">
          <mxGeometry x="165" y="225" width="45" height="45" as="geometry" />
        </mxCell>
        <mxCell id="7sT3qUHH8tz0WFLtc2-D-73" value="&lt;font style=&quot;font-size: 26px;&quot;&gt;&lt;b&gt;10&lt;/b&gt;&lt;/font&gt;" style="ellipse;whiteSpace=wrap;html=1;aspect=fixed;" vertex="1" parent="1">
          <mxGeometry x="165" y="280" width="45" height="45" as="geometry" />
        </mxCell>
        <mxCell id="7sT3qUHH8tz0WFLtc2-D-74" value="&lt;font style=&quot;font-size: 26px;&quot;&gt;&lt;b&gt;12&lt;/b&gt;&lt;/font&gt;" style="ellipse;whiteSpace=wrap;html=1;aspect=fixed;" vertex="1" parent="1">
          <mxGeometry x="165" y="340" width="45" height="45" as="geometry" />
        </mxCell>
        <mxCell id="7sT3qUHH8tz0WFLtc2-D-75" value="&lt;font style=&quot;font-size: 26px;&quot;&gt;&lt;b&gt;16&lt;/b&gt;&lt;/font&gt;" style="ellipse;whiteSpace=wrap;html=1;aspect=fixed;" vertex="1" parent="1">
          <mxGeometry x="165" y="460" width="45" height="45" as="geometry" />
        </mxCell>
        <mxCell id="7sT3qUHH8tz0WFLtc2-D-76" value="&lt;font style=&quot;font-size: 26px;&quot;&gt;&lt;b&gt;14&lt;/b&gt;&lt;/font&gt;" style="ellipse;whiteSpace=wrap;html=1;aspect=fixed;" vertex="1" parent="1">
          <mxGeometry x="165" y="400" width="45" height="45" as="geometry" />
        </mxCell>
        <mxCell id="7sT3qUHH8tz0WFLtc2-D-77" value="&lt;span style=&quot;font-size: 26px;&quot;&gt;&lt;b&gt;18&lt;/b&gt;&lt;/span&gt;" style="ellipse;whiteSpace=wrap;html=1;aspect=fixed;" vertex="1" parent="1">
          <mxGeometry x="165" y="520" width="45" height="45" as="geometry" />
        </mxCell>
        <mxCell id="7sT3qUHH8tz0WFLtc2-D-78" value="&lt;font style=&quot;font-size: 26px;&quot;&gt;&lt;b&gt;20&lt;/b&gt;&lt;/font&gt;" style="ellipse;whiteSpace=wrap;html=1;aspect=fixed;" vertex="1" parent="1">
          <mxGeometry x="165" y="580" width="45" height="45" as="geometry" />
        </mxCell>
        <mxCell id="7sT3qUHH8tz0WFLtc2-D-79" value="&lt;font style=&quot;font-size: 26px;&quot;&gt;&lt;b&gt;22&lt;/b&gt;&lt;/font&gt;" style="ellipse;whiteSpace=wrap;html=1;aspect=fixed;" vertex="1" parent="1">
          <mxGeometry x="165" y="640" width="45" height="45" as="geometry" />
        </mxCell>
        <mxCell id="7sT3qUHH8tz0WFLtc2-D-80" value="&lt;font style=&quot;font-size: 26px;&quot;&gt;&lt;b&gt;24&lt;/b&gt;&lt;/font&gt;" style="ellipse;whiteSpace=wrap;html=1;aspect=fixed;" vertex="1" parent="1">
          <mxGeometry x="165" y="700" width="45" height="45" as="geometry" />
        </mxCell>
        <mxCell id="7sT3qUHH8tz0WFLtc2-D-81" value="&lt;font style=&quot;font-size: 26px;&quot;&gt;&lt;b&gt;26&lt;/b&gt;&lt;/font&gt;" style="ellipse;whiteSpace=wrap;html=1;aspect=fixed;" vertex="1" parent="1">
          <mxGeometry x="165" y="760" width="45" height="45" as="geometry" />
        </mxCell>
        <mxCell id="7sT3qUHH8tz0WFLtc2-D-82" value="&lt;font style=&quot;font-size: 26px;&quot;&gt;&lt;b&gt;28&lt;/b&gt;&lt;/font&gt;" style="ellipse;whiteSpace=wrap;html=1;aspect=fixed;" vertex="1" parent="1">
          <mxGeometry x="165" y="820" width="45" height="45" as="geometry" />
        </mxCell>
        <mxCell id="7sT3qUHH8tz0WFLtc2-D-83" value="&lt;font style=&quot;font-size: 26px;&quot;&gt;&lt;b&gt;30&lt;/b&gt;&lt;/font&gt;" style="ellipse;whiteSpace=wrap;html=1;aspect=fixed;" vertex="1" parent="1">
          <mxGeometry x="165" y="880" width="45" height="45" as="geometry" />
        </mxCell>
        <mxCell id="7sT3qUHH8tz0WFLtc2-D-84" value="&lt;font style=&quot;font-size: 26px;&quot;&gt;&lt;b&gt;32&lt;/b&gt;&lt;/font&gt;" style="ellipse;whiteSpace=wrap;html=1;aspect=fixed;" vertex="1" parent="1">
          <mxGeometry x="165" y="940" width="45" height="45" as="geometry" />
        </mxCell>
        <mxCell id="7sT3qUHH8tz0WFLtc2-D-85" value="&lt;font style=&quot;font-size: 26px;&quot;&gt;&lt;b&gt;34&lt;/b&gt;&lt;/font&gt;" style="ellipse;whiteSpace=wrap;html=1;aspect=fixed;" vertex="1" parent="1">
          <mxGeometry x="165" y="1000" width="45" height="45" as="geometry" />
        </mxCell>
        <mxCell id="7sT3qUHH8tz0WFLtc2-D-86" value="&lt;font style=&quot;font-size: 26px;&quot;&gt;&lt;b&gt;36&lt;/b&gt;&lt;/font&gt;" style="ellipse;whiteSpace=wrap;html=1;aspect=fixed;" vertex="1" parent="1">
          <mxGeometry x="165" y="1060" width="45" height="45" as="geometry" />
        </mxCell>
        <mxCell id="7sT3qUHH8tz0WFLtc2-D-87" value="&lt;font style=&quot;font-size: 26px;&quot;&gt;&lt;b&gt;38&lt;/b&gt;&lt;/font&gt;" style="ellipse;whiteSpace=wrap;html=1;aspect=fixed;" vertex="1" parent="1">
          <mxGeometry x="165" y="1120" width="45" height="45" as="geometry" />
        </mxCell>
        <mxCell id="7sT3qUHH8tz0WFLtc2-D-88" value="&lt;font style=&quot;font-size: 26px;&quot;&gt;&lt;b&gt;40&lt;/b&gt;&lt;/font&gt;" style="ellipse;whiteSpace=wrap;html=1;aspect=fixed;" vertex="1" parent="1">
          <mxGeometry x="165" y="1180" width="45" height="45" as="geometry" />
        </mxCell>
        <mxCell id="7sT3qUHH8tz0WFLtc2-D-89" value="" style="rounded=0;whiteSpace=wrap;html=1;" vertex="1" parent="1">
          <mxGeometry x="779.99" y="117.5" width="110" height="220" as="geometry" />
        </mxCell>
        <mxCell id="7sT3qUHH8tz0WFLtc2-D-90" value="" style="ellipse;whiteSpace=wrap;html=1;aspect=fixed;" vertex="1" parent="1">
          <mxGeometry x="807.49" y="247.5" width="55" height="55" as="geometry" />
        </mxCell>
        <mxCell id="7sT3qUHH8tz0WFLtc2-D-91" value="" style="rounded=1;whiteSpace=wrap;html=1;" vertex="1" parent="1">
          <mxGeometry x="789.99" y="127.5" width="90" height="100" as="geometry" />
        </mxCell>
        <mxCell id="7sT3qUHH8tz0WFLtc2-D-93" value="" style="rounded=0;whiteSpace=wrap;html=1;" vertex="1" parent="1">
          <mxGeometry x="809.99" y="142.5" width="10" height="10" as="geometry" />
        </mxCell>
        <mxCell id="7sT3qUHH8tz0WFLtc2-D-94" value="" style="rounded=0;whiteSpace=wrap;html=1;" vertex="1" parent="1">
          <mxGeometry x="829.99" y="142.5" width="10" height="10" as="geometry" />
        </mxCell>
        <mxCell id="7sT3qUHH8tz0WFLtc2-D-95" value="" style="rounded=0;whiteSpace=wrap;html=1;" vertex="1" parent="1">
          <mxGeometry x="849.99" y="142.5" width="10" height="10" as="geometry" />
        </mxCell>
        <mxCell id="7sT3qUHH8tz0WFLtc2-D-97" value="" style="rounded=0;whiteSpace=wrap;html=1;" vertex="1" parent="1">
          <mxGeometry x="809.99" y="127.5" width="10" height="10" as="geometry" />
        </mxCell>
        <mxCell id="7sT3qUHH8tz0WFLtc2-D-98" value="" style="rounded=0;whiteSpace=wrap;html=1;" vertex="1" parent="1">
          <mxGeometry x="829.99" y="127.5" width="10" height="10" as="geometry" />
        </mxCell>
        <mxCell id="7sT3qUHH8tz0WFLtc2-D-99" value="" style="rounded=0;whiteSpace=wrap;html=1;" vertex="1" parent="1">
          <mxGeometry x="849.99" y="127.5" width="10" height="10" as="geometry" />
        </mxCell>
        <mxCell id="7sT3qUHH8tz0WFLtc2-D-104" value="" style="rounded=0;whiteSpace=wrap;html=1;" vertex="1" parent="1">
          <mxGeometry x="809.99" y="172.5" width="10" height="10" as="geometry" />
        </mxCell>
        <mxCell id="7sT3qUHH8tz0WFLtc2-D-105" value="" style="rounded=0;whiteSpace=wrap;html=1;" vertex="1" parent="1">
          <mxGeometry x="829.99" y="172.5" width="10" height="10" as="geometry" />
        </mxCell>
        <mxCell id="7sT3qUHH8tz0WFLtc2-D-106" value="" style="rounded=0;whiteSpace=wrap;html=1;" vertex="1" parent="1">
          <mxGeometry x="849.99" y="172.5" width="10" height="10" as="geometry" />
        </mxCell>
        <mxCell id="7sT3qUHH8tz0WFLtc2-D-107" value="" style="rounded=0;whiteSpace=wrap;html=1;" vertex="1" parent="1">
          <mxGeometry x="809.99" y="157.5" width="10" height="10" as="geometry" />
        </mxCell>
        <mxCell id="7sT3qUHH8tz0WFLtc2-D-108" value="" style="rounded=0;whiteSpace=wrap;html=1;" vertex="1" parent="1">
          <mxGeometry x="829.99" y="157.5" width="10" height="10" as="geometry" />
        </mxCell>
        <mxCell id="7sT3qUHH8tz0WFLtc2-D-109" value="" style="rounded=0;whiteSpace=wrap;html=1;" vertex="1" parent="1">
          <mxGeometry x="849.99" y="157.5" width="10" height="10" as="geometry" />
        </mxCell>
        <mxCell id="7sT3qUHH8tz0WFLtc2-D-110" value="" style="rounded=0;whiteSpace=wrap;html=1;" vertex="1" parent="1">
          <mxGeometry x="809.99" y="207.5" width="10" height="10" as="geometry" />
        </mxCell>
        <mxCell id="7sT3qUHH8tz0WFLtc2-D-111" value="" style="rounded=0;whiteSpace=wrap;html=1;" vertex="1" parent="1">
          <mxGeometry x="829.99" y="207.5" width="10" height="10" as="geometry" />
        </mxCell>
        <mxCell id="7sT3qUHH8tz0WFLtc2-D-112" value="" style="rounded=0;whiteSpace=wrap;html=1;" vertex="1" parent="1">
          <mxGeometry x="849.99" y="207.5" width="10" height="10" as="geometry" />
        </mxCell>
        <mxCell id="7sT3qUHH8tz0WFLtc2-D-113" value="" style="rounded=0;whiteSpace=wrap;html=1;" vertex="1" parent="1">
          <mxGeometry x="809.99" y="192.5" width="10" height="10" as="geometry" />
        </mxCell>
        <mxCell id="7sT3qUHH8tz0WFLtc2-D-114" value="" style="rounded=0;whiteSpace=wrap;html=1;" vertex="1" parent="1">
          <mxGeometry x="829.99" y="192.5" width="10" height="10" as="geometry" />
        </mxCell>
        <mxCell id="7sT3qUHH8tz0WFLtc2-D-115" value="" style="rounded=0;whiteSpace=wrap;html=1;" vertex="1" parent="1">
          <mxGeometry x="849.99" y="192.5" width="10" height="10" as="geometry" />
        </mxCell>
        <mxCell id="7sT3qUHH8tz0WFLtc2-D-122" value="" style="rounded=0;whiteSpace=wrap;html=1;" vertex="1" parent="1">
          <mxGeometry x="789.99" y="172.5" width="10" height="10" as="geometry" />
        </mxCell>
        <mxCell id="7sT3qUHH8tz0WFLtc2-D-123" value="" style="rounded=0;whiteSpace=wrap;html=1;" vertex="1" parent="1">
          <mxGeometry x="789.99" y="157.5" width="10" height="10" as="geometry" />
        </mxCell>
        <mxCell id="7sT3qUHH8tz0WFLtc2-D-124" value="" style="rounded=0;whiteSpace=wrap;html=1;" vertex="1" parent="1">
          <mxGeometry x="869.99" y="172.5" width="10" height="10" as="geometry" />
        </mxCell>
        <mxCell id="7sT3qUHH8tz0WFLtc2-D-125" value="" style="rounded=0;whiteSpace=wrap;html=1;" vertex="1" parent="1">
          <mxGeometry x="869.99" y="157.5" width="10" height="10" as="geometry" />
        </mxCell>
        <mxCell id="7sT3qUHH8tz0WFLtc2-D-127" value="" style="rounded=1;whiteSpace=wrap;html=1;arcSize=34;" vertex="1" parent="1">
          <mxGeometry x="869.99" y="207.5" width="10" height="10" as="geometry" />
        </mxCell>
        <mxCell id="7sT3qUHH8tz0WFLtc2-D-130" value="" style="rounded=0;whiteSpace=wrap;html=1;" vertex="1" parent="1">
          <mxGeometry x="804.99" y="322.5" width="10" height="10" as="geometry" />
        </mxCell>
        <mxCell id="7sT3qUHH8tz0WFLtc2-D-131" value="" style="rounded=0;whiteSpace=wrap;html=1;" vertex="1" parent="1">
          <mxGeometry x="829.99" y="322.5" width="10" height="10" as="geometry" />
        </mxCell>
        <mxCell id="7sT3qUHH8tz0WFLtc2-D-132" value="" style="rounded=0;whiteSpace=wrap;html=1;" vertex="1" parent="1">
          <mxGeometry x="854.99" y="322.5" width="10" height="10" as="geometry" />
        </mxCell>
        <mxCell id="7sT3qUHH8tz0WFLtc2-D-136" value="" style="endArrow=none;html=1;rounded=0;strokeWidth=4;" edge="1" parent="1">
          <mxGeometry width="50" height="50" relative="1" as="geometry">
            <mxPoint x="809.99" y="372.5" as="sourcePoint" />
            <mxPoint x="809.99" y="332.5" as="targetPoint" />
            <Array as="points">
              <mxPoint x="809.99" y="352.5" />
            </Array>
          </mxGeometry>
        </mxCell>
        <mxCell id="7sT3qUHH8tz0WFLtc2-D-137" value="" style="endArrow=none;html=1;rounded=0;strokeWidth=4;" edge="1" parent="1">
          <mxGeometry width="50" height="50" relative="1" as="geometry">
            <mxPoint x="836.1700000000001" y="372.5" as="sourcePoint" />
            <mxPoint x="836.1700000000001" y="332.5" as="targetPoint" />
            <Array as="points">
              <mxPoint x="836.1700000000001" y="352.5" />
            </Array>
          </mxGeometry>
        </mxCell>
        <mxCell id="7sT3qUHH8tz0WFLtc2-D-138" value="" style="endArrow=none;html=1;rounded=0;strokeWidth=4;" edge="1" parent="1">
          <mxGeometry width="50" height="50" relative="1" as="geometry">
            <mxPoint x="859.99" y="372.5" as="sourcePoint" />
            <mxPoint x="859.99" y="332.5" as="targetPoint" />
            <Array as="points">
              <mxPoint x="859.99" y="352.5" />
            </Array>
          </mxGeometry>
        </mxCell>
        <mxCell id="7sT3qUHH8tz0WFLtc2-D-139" value="" style="ellipse;whiteSpace=wrap;html=1;aspect=fixed;" vertex="1" parent="1">
          <mxGeometry x="799.99" y="227.5" width="10" height="10" as="geometry" />
        </mxCell>
        <mxCell id="7sT3qUHH8tz0WFLtc2-D-140" value="" style="ellipse;whiteSpace=wrap;html=1;aspect=fixed;" vertex="1" parent="1">
          <mxGeometry x="819.99" y="227.5" width="10" height="10" as="geometry" />
        </mxCell>
        <mxCell id="7sT3qUHH8tz0WFLtc2-D-141" value="" style="ellipse;whiteSpace=wrap;html=1;aspect=fixed;" vertex="1" parent="1">
          <mxGeometry x="839.99" y="227.5" width="10" height="10" as="geometry" />
        </mxCell>
        <mxCell id="7sT3qUHH8tz0WFLtc2-D-142" value="" style="ellipse;whiteSpace=wrap;html=1;aspect=fixed;" vertex="1" parent="1">
          <mxGeometry x="859.99" y="227.5" width="10" height="10" as="geometry" />
        </mxCell>
        <mxCell id="7sT3qUHH8tz0WFLtc2-D-145" value="" style="endArrow=none;html=1;rounded=0;strokeWidth=3;" edge="1" parent="1">
          <mxGeometry width="50" height="50" relative="1" as="geometry">
            <mxPoint x="864.99" y="227.5" as="sourcePoint" />
            <mxPoint x="864.91" y="232.5" as="targetPoint" />
          </mxGeometry>
        </mxCell>
        <mxCell id="7sT3qUHH8tz0WFLtc2-D-147" value="" style="endArrow=none;html=1;rounded=0;strokeWidth=3;" edge="1" parent="1">
          <mxGeometry width="50" height="50" relative="1" as="geometry">
            <mxPoint x="844.99" y="227.5" as="sourcePoint" />
            <mxPoint x="844.91" y="232.5" as="targetPoint" />
          </mxGeometry>
        </mxCell>
        <mxCell id="7sT3qUHH8tz0WFLtc2-D-148" value="" style="endArrow=none;html=1;rounded=0;strokeWidth=3;" edge="1" parent="1" source="7sT3qUHH8tz0WFLtc2-D-151">
          <mxGeometry width="50" height="50" relative="1" as="geometry">
            <mxPoint x="824.99" y="227.5" as="sourcePoint" />
            <mxPoint x="824.91" y="232.5" as="targetPoint" />
          </mxGeometry>
        </mxCell>
        <mxCell id="7sT3qUHH8tz0WFLtc2-D-149" value="" style="endArrow=none;html=1;rounded=0;strokeWidth=3;" edge="1" parent="1">
          <mxGeometry width="50" height="50" relative="1" as="geometry">
            <mxPoint x="805.0699999999999" y="227.5" as="sourcePoint" />
            <mxPoint x="804.99" y="232.5" as="targetPoint" />
          </mxGeometry>
        </mxCell>
        <mxCell id="7sT3qUHH8tz0WFLtc2-D-150" value="" style="ellipse;whiteSpace=wrap;html=1;aspect=fixed;" vertex="1" parent="1">
          <mxGeometry x="803.74" y="231.25" width="2.5" height="2.5" as="geometry" />
        </mxCell>
        <mxCell id="7sT3qUHH8tz0WFLtc2-D-152" value="" style="endArrow=none;html=1;rounded=0;strokeWidth=3;" edge="1" parent="1" target="7sT3qUHH8tz0WFLtc2-D-151">
          <mxGeometry width="50" height="50" relative="1" as="geometry">
            <mxPoint x="824.99" y="227.5" as="sourcePoint" />
            <mxPoint x="824.91" y="232.5" as="targetPoint" />
          </mxGeometry>
        </mxCell>
        <mxCell id="7sT3qUHH8tz0WFLtc2-D-151" value="" style="ellipse;whiteSpace=wrap;html=1;aspect=fixed;" vertex="1" parent="1">
          <mxGeometry x="823.74" y="231.25" width="2.5" height="2.5" as="geometry" />
        </mxCell>
        <mxCell id="7sT3qUHH8tz0WFLtc2-D-153" value="" style="ellipse;whiteSpace=wrap;html=1;aspect=fixed;" vertex="1" parent="1">
          <mxGeometry x="843.74" y="231.25" width="2.5" height="2.5" as="geometry" />
        </mxCell>
        <mxCell id="7sT3qUHH8tz0WFLtc2-D-154" value="" style="ellipse;whiteSpace=wrap;html=1;aspect=fixed;" vertex="1" parent="1">
          <mxGeometry x="863.74" y="231.25" width="2.5" height="2.5" as="geometry" />
        </mxCell>
        <mxCell id="7sT3qUHH8tz0WFLtc2-D-155" value="" style="rounded=1;whiteSpace=wrap;html=1;arcSize=34;" vertex="1" parent="1">
          <mxGeometry x="789.99" y="207.5" width="10" height="10" as="geometry" />
        </mxCell>
        <mxCell id="7sT3qUHH8tz0WFLtc2-D-158" value="" style="ellipse;whiteSpace=wrap;html=1;aspect=fixed;" vertex="1" parent="1">
          <mxGeometry x="812.49" y="252.5" width="45" height="45" as="geometry" />
        </mxCell>
        <mxCell id="7sT3qUHH8tz0WFLtc2-D-176" value="" style="rounded=1;whiteSpace=wrap;html=1;rotation=90;strokeWidth=4;arcSize=6;" vertex="1" parent="1">
          <mxGeometry x="606.87" y="625" width="458.75" height="622.5" as="geometry" />
        </mxCell>
        <mxCell id="7sT3qUHH8tz0WFLtc2-D-182" value="" style="endArrow=none;html=1;rounded=0;strokeWidth=4;" edge="1" parent="1">
          <mxGeometry width="50" height="50" relative="1" as="geometry">
            <mxPoint x="524.99" y="919.37" as="sourcePoint" />
            <mxPoint x="1144.99" y="919.37" as="targetPoint" />
          </mxGeometry>
        </mxCell>
        <mxCell id="7sT3qUHH8tz0WFLtc2-D-183" value="" style="endArrow=none;html=1;rounded=0;strokeWidth=4;" edge="1" parent="1">
          <mxGeometry width="50" height="50" relative="1" as="geometry">
            <mxPoint x="524.99" y="953.32" as="sourcePoint" />
            <mxPoint x="1144.99" y="953.32" as="targetPoint" />
          </mxGeometry>
        </mxCell>
        <mxCell id="7sT3qUHH8tz0WFLtc2-D-184" value="" style="endArrow=none;html=1;rounded=0;strokeWidth=4;fontColor=none;noLabel=1;strokeColor=#FF0000;" edge="1" parent="1">
          <mxGeometry width="50" height="50" relative="1" as="geometry">
            <mxPoint x="553.74" y="719.37" as="sourcePoint" />
            <mxPoint x="1118.74" y="719.37" as="targetPoint" />
          </mxGeometry>
        </mxCell>
        <mxCell id="7sT3qUHH8tz0WFLtc2-D-186" value="" style="rounded=0;whiteSpace=wrap;html=1;" vertex="1" parent="1">
          <mxGeometry x="559.99" y="729.37" width="15" height="15" as="geometry" />
        </mxCell>
        <mxCell id="7sT3qUHH8tz0WFLtc2-D-188" value="" style="endArrow=none;html=1;rounded=0;strokeWidth=4;strokeColor=#0000FF;" edge="1" parent="1">
          <mxGeometry width="50" height="50" relative="1" as="geometry">
            <mxPoint x="553.74" y="774.37" as="sourcePoint" />
            <mxPoint x="1118.74" y="774.37" as="targetPoint" />
          </mxGeometry>
        </mxCell>
        <mxCell id="7sT3qUHH8tz0WFLtc2-D-194" value="" style="rounded=0;whiteSpace=wrap;html=1;" vertex="1" parent="1">
          <mxGeometry x="559.99" y="749.37" width="15" height="15" as="geometry" />
        </mxCell>
        <mxCell id="7sT3qUHH8tz0WFLtc2-D-195" value="" style="rounded=0;whiteSpace=wrap;html=1;" vertex="1" parent="1">
          <mxGeometry x="559.99" y="809.37" width="15" height="15" as="geometry" />
        </mxCell>
        <mxCell id="7sT3qUHH8tz0WFLtc2-D-196" value="" style="rounded=0;whiteSpace=wrap;html=1;" vertex="1" parent="1">
          <mxGeometry x="559.99" y="834.37" width="15" height="15" as="geometry" />
        </mxCell>
        <mxCell id="7sT3qUHH8tz0WFLtc2-D-197" value="" style="rounded=0;whiteSpace=wrap;html=1;" vertex="1" parent="1">
          <mxGeometry x="559.99" y="864.37" width="15" height="15" as="geometry" />
        </mxCell>
        <mxCell id="7sT3qUHH8tz0WFLtc2-D-198" value="" style="rounded=0;whiteSpace=wrap;html=1;" vertex="1" parent="1">
          <mxGeometry x="559.99" y="889.37" width="15" height="15" as="geometry" />
        </mxCell>
        <mxCell id="7sT3qUHH8tz0WFLtc2-D-199" value="" style="rounded=0;whiteSpace=wrap;html=1;" vertex="1" parent="1">
          <mxGeometry x="559.99" y="784.37" width="15" height="15" as="geometry" />
        </mxCell>
        <mxCell id="7sT3qUHH8tz0WFLtc2-D-207" value="" style="rounded=0;whiteSpace=wrap;html=1;" vertex="1" parent="1">
          <mxGeometry x="589.99" y="729.37" width="15" height="15" as="geometry" />
        </mxCell>
        <mxCell id="7sT3qUHH8tz0WFLtc2-D-208" value="" style="rounded=0;whiteSpace=wrap;html=1;" vertex="1" parent="1">
          <mxGeometry x="589.99" y="749.37" width="15" height="15" as="geometry" />
        </mxCell>
        <mxCell id="7sT3qUHH8tz0WFLtc2-D-209" value="" style="rounded=0;whiteSpace=wrap;html=1;" vertex="1" parent="1">
          <mxGeometry x="589.99" y="809.37" width="15" height="15" as="geometry" />
        </mxCell>
        <mxCell id="7sT3qUHH8tz0WFLtc2-D-210" value="" style="rounded=0;whiteSpace=wrap;html=1;" vertex="1" parent="1">
          <mxGeometry x="589.99" y="834.37" width="15" height="15" as="geometry" />
        </mxCell>
        <mxCell id="7sT3qUHH8tz0WFLtc2-D-211" value="" style="rounded=0;whiteSpace=wrap;html=1;" vertex="1" parent="1">
          <mxGeometry x="589.99" y="864.37" width="15" height="15" as="geometry" />
        </mxCell>
        <mxCell id="7sT3qUHH8tz0WFLtc2-D-212" value="" style="rounded=0;whiteSpace=wrap;html=1;" vertex="1" parent="1">
          <mxGeometry x="589.99" y="889.37" width="15" height="15" as="geometry" />
        </mxCell>
        <mxCell id="7sT3qUHH8tz0WFLtc2-D-213" value="" style="rounded=0;whiteSpace=wrap;html=1;" vertex="1" parent="1">
          <mxGeometry x="589.99" y="784.37" width="15" height="15" as="geometry" />
        </mxCell>
        <mxCell id="7sT3qUHH8tz0WFLtc2-D-214" value="" style="rounded=0;whiteSpace=wrap;html=1;" vertex="1" parent="1">
          <mxGeometry x="619.99" y="729.37" width="15" height="15" as="geometry" />
        </mxCell>
        <mxCell id="7sT3qUHH8tz0WFLtc2-D-215" value="" style="rounded=0;whiteSpace=wrap;html=1;" vertex="1" parent="1">
          <mxGeometry x="619.99" y="749.37" width="15" height="15" as="geometry" />
        </mxCell>
        <mxCell id="7sT3qUHH8tz0WFLtc2-D-216" value="" style="rounded=0;whiteSpace=wrap;html=1;" vertex="1" parent="1">
          <mxGeometry x="619.99" y="809.37" width="15" height="15" as="geometry" />
        </mxCell>
        <mxCell id="7sT3qUHH8tz0WFLtc2-D-217" value="" style="rounded=0;whiteSpace=wrap;html=1;" vertex="1" parent="1">
          <mxGeometry x="619.99" y="834.37" width="15" height="15" as="geometry" />
        </mxCell>
        <mxCell id="7sT3qUHH8tz0WFLtc2-D-218" value="" style="rounded=0;whiteSpace=wrap;html=1;" vertex="1" parent="1">
          <mxGeometry x="619.99" y="864.37" width="15" height="15" as="geometry" />
        </mxCell>
        <mxCell id="7sT3qUHH8tz0WFLtc2-D-219" value="" style="rounded=0;whiteSpace=wrap;html=1;" vertex="1" parent="1">
          <mxGeometry x="619.99" y="889.37" width="15" height="15" as="geometry" />
        </mxCell>
        <mxCell id="7sT3qUHH8tz0WFLtc2-D-220" value="" style="rounded=0;whiteSpace=wrap;html=1;" vertex="1" parent="1">
          <mxGeometry x="619.99" y="784.37" width="15" height="15" as="geometry" />
        </mxCell>
        <mxCell id="7sT3qUHH8tz0WFLtc2-D-221" value="" style="rounded=0;whiteSpace=wrap;html=1;" vertex="1" parent="1">
          <mxGeometry x="649.99" y="729.37" width="15" height="15" as="geometry" />
        </mxCell>
        <mxCell id="7sT3qUHH8tz0WFLtc2-D-222" value="" style="rounded=0;whiteSpace=wrap;html=1;" vertex="1" parent="1">
          <mxGeometry x="649.99" y="749.37" width="15" height="15" as="geometry" />
        </mxCell>
        <mxCell id="7sT3qUHH8tz0WFLtc2-D-223" value="" style="rounded=0;whiteSpace=wrap;html=1;" vertex="1" parent="1">
          <mxGeometry x="649.99" y="809.37" width="15" height="15" as="geometry" />
        </mxCell>
        <mxCell id="7sT3qUHH8tz0WFLtc2-D-224" value="" style="rounded=0;whiteSpace=wrap;html=1;" vertex="1" parent="1">
          <mxGeometry x="649.99" y="834.37" width="15" height="15" as="geometry" />
        </mxCell>
        <mxCell id="7sT3qUHH8tz0WFLtc2-D-225" value="" style="rounded=0;whiteSpace=wrap;html=1;" vertex="1" parent="1">
          <mxGeometry x="649.99" y="864.37" width="15" height="15" as="geometry" />
        </mxCell>
        <mxCell id="7sT3qUHH8tz0WFLtc2-D-226" value="" style="rounded=0;whiteSpace=wrap;html=1;" vertex="1" parent="1">
          <mxGeometry x="649.99" y="889.37" width="15" height="15" as="geometry" />
        </mxCell>
        <mxCell id="7sT3qUHH8tz0WFLtc2-D-227" value="" style="rounded=0;whiteSpace=wrap;html=1;" vertex="1" parent="1">
          <mxGeometry x="649.99" y="784.37" width="15" height="15" as="geometry" />
        </mxCell>
        <mxCell id="7sT3qUHH8tz0WFLtc2-D-228" value="" style="rounded=0;whiteSpace=wrap;html=1;" vertex="1" parent="1">
          <mxGeometry x="679.99" y="729.37" width="15" height="15" as="geometry" />
        </mxCell>
        <mxCell id="7sT3qUHH8tz0WFLtc2-D-229" value="" style="rounded=0;whiteSpace=wrap;html=1;" vertex="1" parent="1">
          <mxGeometry x="679.99" y="749.37" width="15" height="15" as="geometry" />
        </mxCell>
        <mxCell id="7sT3qUHH8tz0WFLtc2-D-230" value="" style="rounded=0;whiteSpace=wrap;html=1;" vertex="1" parent="1">
          <mxGeometry x="679.99" y="809.37" width="15" height="15" as="geometry" />
        </mxCell>
        <mxCell id="7sT3qUHH8tz0WFLtc2-D-231" value="" style="rounded=0;whiteSpace=wrap;html=1;" vertex="1" parent="1">
          <mxGeometry x="679.99" y="834.37" width="15" height="15" as="geometry" />
        </mxCell>
        <mxCell id="7sT3qUHH8tz0WFLtc2-D-232" value="" style="rounded=0;whiteSpace=wrap;html=1;" vertex="1" parent="1">
          <mxGeometry x="679.99" y="864.37" width="15" height="15" as="geometry" />
        </mxCell>
        <mxCell id="7sT3qUHH8tz0WFLtc2-D-233" value="" style="rounded=0;whiteSpace=wrap;html=1;" vertex="1" parent="1">
          <mxGeometry x="679.99" y="889.37" width="15" height="15" as="geometry" />
        </mxCell>
        <mxCell id="7sT3qUHH8tz0WFLtc2-D-234" value="" style="rounded=0;whiteSpace=wrap;html=1;" vertex="1" parent="1">
          <mxGeometry x="679.99" y="784.37" width="15" height="15" as="geometry" />
        </mxCell>
        <mxCell id="7sT3qUHH8tz0WFLtc2-D-235" value="" style="rounded=0;whiteSpace=wrap;html=1;" vertex="1" parent="1">
          <mxGeometry x="709.99" y="729.37" width="15" height="15" as="geometry" />
        </mxCell>
        <mxCell id="7sT3qUHH8tz0WFLtc2-D-236" value="" style="rounded=0;whiteSpace=wrap;html=1;" vertex="1" parent="1">
          <mxGeometry x="709.99" y="749.37" width="15" height="15" as="geometry" />
        </mxCell>
        <mxCell id="7sT3qUHH8tz0WFLtc2-D-237" value="" style="rounded=0;whiteSpace=wrap;html=1;" vertex="1" parent="1">
          <mxGeometry x="709.99" y="809.37" width="15" height="15" as="geometry" />
        </mxCell>
        <mxCell id="7sT3qUHH8tz0WFLtc2-D-238" value="" style="rounded=0;whiteSpace=wrap;html=1;" vertex="1" parent="1">
          <mxGeometry x="709.99" y="834.37" width="15" height="15" as="geometry" />
        </mxCell>
        <mxCell id="7sT3qUHH8tz0WFLtc2-D-239" value="" style="rounded=0;whiteSpace=wrap;html=1;" vertex="1" parent="1">
          <mxGeometry x="709.99" y="864.37" width="15" height="15" as="geometry" />
        </mxCell>
        <mxCell id="7sT3qUHH8tz0WFLtc2-D-240" value="" style="rounded=0;whiteSpace=wrap;html=1;" vertex="1" parent="1">
          <mxGeometry x="709.99" y="889.37" width="15" height="15" as="geometry" />
        </mxCell>
        <mxCell id="7sT3qUHH8tz0WFLtc2-D-241" value="" style="rounded=0;whiteSpace=wrap;html=1;" vertex="1" parent="1">
          <mxGeometry x="709.99" y="784.37" width="15" height="15" as="geometry" />
        </mxCell>
        <mxCell id="7sT3qUHH8tz0WFLtc2-D-242" value="" style="rounded=0;whiteSpace=wrap;html=1;" vertex="1" parent="1">
          <mxGeometry x="739.99" y="729.37" width="15" height="15" as="geometry" />
        </mxCell>
        <mxCell id="7sT3qUHH8tz0WFLtc2-D-243" value="" style="rounded=0;whiteSpace=wrap;html=1;" vertex="1" parent="1">
          <mxGeometry x="739.99" y="749.37" width="15" height="15" as="geometry" />
        </mxCell>
        <mxCell id="7sT3qUHH8tz0WFLtc2-D-244" value="" style="rounded=0;whiteSpace=wrap;html=1;" vertex="1" parent="1">
          <mxGeometry x="739.99" y="809.37" width="15" height="15" as="geometry" />
        </mxCell>
        <mxCell id="7sT3qUHH8tz0WFLtc2-D-245" value="" style="rounded=0;whiteSpace=wrap;html=1;" vertex="1" parent="1">
          <mxGeometry x="739.99" y="834.37" width="15" height="15" as="geometry" />
        </mxCell>
        <mxCell id="7sT3qUHH8tz0WFLtc2-D-246" value="" style="rounded=0;whiteSpace=wrap;html=1;" vertex="1" parent="1">
          <mxGeometry x="739.99" y="864.37" width="15" height="15" as="geometry" />
        </mxCell>
        <mxCell id="7sT3qUHH8tz0WFLtc2-D-247" value="" style="rounded=0;whiteSpace=wrap;html=1;" vertex="1" parent="1">
          <mxGeometry x="739.99" y="889.37" width="15" height="15" as="geometry" />
        </mxCell>
        <mxCell id="7sT3qUHH8tz0WFLtc2-D-248" value="" style="rounded=0;whiteSpace=wrap;html=1;" vertex="1" parent="1">
          <mxGeometry x="739.99" y="784.37" width="15" height="15" as="geometry" />
        </mxCell>
        <mxCell id="7sT3qUHH8tz0WFLtc2-D-249" value="" style="rounded=0;whiteSpace=wrap;html=1;" vertex="1" parent="1">
          <mxGeometry x="769.99" y="729.37" width="15" height="15" as="geometry" />
        </mxCell>
        <mxCell id="7sT3qUHH8tz0WFLtc2-D-250" value="" style="rounded=0;whiteSpace=wrap;html=1;" vertex="1" parent="1">
          <mxGeometry x="769.99" y="749.37" width="15" height="15" as="geometry" />
        </mxCell>
        <mxCell id="7sT3qUHH8tz0WFLtc2-D-251" value="" style="rounded=0;whiteSpace=wrap;html=1;" vertex="1" parent="1">
          <mxGeometry x="769.99" y="809.37" width="15" height="15" as="geometry" />
        </mxCell>
        <mxCell id="7sT3qUHH8tz0WFLtc2-D-252" value="" style="rounded=0;whiteSpace=wrap;html=1;" vertex="1" parent="1">
          <mxGeometry x="769.99" y="834.37" width="15" height="15" as="geometry" />
        </mxCell>
        <mxCell id="7sT3qUHH8tz0WFLtc2-D-253" value="" style="rounded=0;whiteSpace=wrap;html=1;" vertex="1" parent="1">
          <mxGeometry x="769.99" y="864.37" width="15" height="15" as="geometry" />
        </mxCell>
        <mxCell id="7sT3qUHH8tz0WFLtc2-D-254" value="" style="rounded=0;whiteSpace=wrap;html=1;" vertex="1" parent="1">
          <mxGeometry x="769.99" y="889.37" width="15" height="15" as="geometry" />
        </mxCell>
        <mxCell id="7sT3qUHH8tz0WFLtc2-D-255" value="" style="rounded=0;whiteSpace=wrap;html=1;" vertex="1" parent="1">
          <mxGeometry x="769.99" y="784.37" width="15" height="15" as="geometry" />
        </mxCell>
        <mxCell id="7sT3qUHH8tz0WFLtc2-D-256" value="" style="rounded=0;whiteSpace=wrap;html=1;" vertex="1" parent="1">
          <mxGeometry x="799.99" y="729.37" width="15" height="15" as="geometry" />
        </mxCell>
        <mxCell id="7sT3qUHH8tz0WFLtc2-D-257" value="" style="rounded=0;whiteSpace=wrap;html=1;" vertex="1" parent="1">
          <mxGeometry x="799.99" y="749.37" width="15" height="15" as="geometry" />
        </mxCell>
        <mxCell id="7sT3qUHH8tz0WFLtc2-D-258" value="" style="rounded=0;whiteSpace=wrap;html=1;" vertex="1" parent="1">
          <mxGeometry x="799.99" y="809.37" width="15" height="15" as="geometry" />
        </mxCell>
        <mxCell id="7sT3qUHH8tz0WFLtc2-D-259" value="" style="rounded=0;whiteSpace=wrap;html=1;" vertex="1" parent="1">
          <mxGeometry x="799.99" y="834.37" width="15" height="15" as="geometry" />
        </mxCell>
        <mxCell id="7sT3qUHH8tz0WFLtc2-D-260" value="" style="rounded=0;whiteSpace=wrap;html=1;" vertex="1" parent="1">
          <mxGeometry x="799.99" y="864.37" width="15" height="15" as="geometry" />
        </mxCell>
        <mxCell id="7sT3qUHH8tz0WFLtc2-D-261" value="" style="rounded=0;whiteSpace=wrap;html=1;" vertex="1" parent="1">
          <mxGeometry x="799.99" y="889.37" width="15" height="15" as="geometry" />
        </mxCell>
        <mxCell id="7sT3qUHH8tz0WFLtc2-D-262" value="" style="rounded=0;whiteSpace=wrap;html=1;" vertex="1" parent="1">
          <mxGeometry x="799.99" y="784.37" width="15" height="15" as="geometry" />
        </mxCell>
        <mxCell id="7sT3qUHH8tz0WFLtc2-D-263" value="" style="rounded=0;whiteSpace=wrap;html=1;" vertex="1" parent="1">
          <mxGeometry x="827.49" y="729.37" width="15" height="15" as="geometry" />
        </mxCell>
        <mxCell id="7sT3qUHH8tz0WFLtc2-D-264" value="" style="rounded=0;whiteSpace=wrap;html=1;" vertex="1" parent="1">
          <mxGeometry x="827.49" y="749.37" width="15" height="15" as="geometry" />
        </mxCell>
        <mxCell id="7sT3qUHH8tz0WFLtc2-D-265" value="" style="rounded=0;whiteSpace=wrap;html=1;" vertex="1" parent="1">
          <mxGeometry x="827.49" y="809.37" width="15" height="15" as="geometry" />
        </mxCell>
        <mxCell id="7sT3qUHH8tz0WFLtc2-D-266" value="" style="rounded=0;whiteSpace=wrap;html=1;" vertex="1" parent="1">
          <mxGeometry x="827.49" y="834.37" width="15" height="15" as="geometry" />
        </mxCell>
        <mxCell id="7sT3qUHH8tz0WFLtc2-D-267" value="" style="rounded=0;whiteSpace=wrap;html=1;" vertex="1" parent="1">
          <mxGeometry x="827.49" y="864.37" width="15" height="15" as="geometry" />
        </mxCell>
        <mxCell id="7sT3qUHH8tz0WFLtc2-D-268" value="" style="rounded=0;whiteSpace=wrap;html=1;" vertex="1" parent="1">
          <mxGeometry x="827.49" y="889.37" width="15" height="15" as="geometry" />
        </mxCell>
        <mxCell id="7sT3qUHH8tz0WFLtc2-D-269" value="" style="rounded=0;whiteSpace=wrap;html=1;" vertex="1" parent="1">
          <mxGeometry x="827.49" y="784.37" width="15" height="15" as="geometry" />
        </mxCell>
        <mxCell id="7sT3qUHH8tz0WFLtc2-D-279" value="" style="rounded=0;whiteSpace=wrap;html=1;" vertex="1" parent="1">
          <mxGeometry x="852.49" y="729.37" width="15" height="15" as="geometry" />
        </mxCell>
        <mxCell id="7sT3qUHH8tz0WFLtc2-D-280" value="" style="rounded=0;whiteSpace=wrap;html=1;" vertex="1" parent="1">
          <mxGeometry x="852.49" y="749.37" width="15" height="15" as="geometry" />
        </mxCell>
        <mxCell id="7sT3qUHH8tz0WFLtc2-D-281" value="" style="rounded=0;whiteSpace=wrap;html=1;" vertex="1" parent="1">
          <mxGeometry x="852.49" y="809.37" width="15" height="15" as="geometry" />
        </mxCell>
        <mxCell id="7sT3qUHH8tz0WFLtc2-D-282" value="" style="rounded=0;whiteSpace=wrap;html=1;" vertex="1" parent="1">
          <mxGeometry x="852.49" y="834.37" width="15" height="15" as="geometry" />
        </mxCell>
        <mxCell id="7sT3qUHH8tz0WFLtc2-D-283" value="" style="rounded=0;whiteSpace=wrap;html=1;" vertex="1" parent="1">
          <mxGeometry x="852.49" y="864.37" width="15" height="15" as="geometry" />
        </mxCell>
        <mxCell id="7sT3qUHH8tz0WFLtc2-D-284" value="" style="rounded=0;whiteSpace=wrap;html=1;" vertex="1" parent="1">
          <mxGeometry x="852.49" y="889.37" width="15" height="15" as="geometry" />
        </mxCell>
        <mxCell id="7sT3qUHH8tz0WFLtc2-D-285" value="" style="rounded=0;whiteSpace=wrap;html=1;" vertex="1" parent="1">
          <mxGeometry x="852.49" y="784.37" width="15" height="15" as="geometry" />
        </mxCell>
        <mxCell id="7sT3qUHH8tz0WFLtc2-D-286" value="" style="rounded=0;whiteSpace=wrap;html=1;" vertex="1" parent="1">
          <mxGeometry x="879.99" y="729.37" width="15" height="15" as="geometry" />
        </mxCell>
        <mxCell id="7sT3qUHH8tz0WFLtc2-D-287" value="" style="rounded=0;whiteSpace=wrap;html=1;" vertex="1" parent="1">
          <mxGeometry x="879.99" y="749.37" width="15" height="15" as="geometry" />
        </mxCell>
        <mxCell id="7sT3qUHH8tz0WFLtc2-D-288" value="" style="rounded=0;whiteSpace=wrap;html=1;" vertex="1" parent="1">
          <mxGeometry x="879.99" y="809.37" width="15" height="15" as="geometry" />
        </mxCell>
        <mxCell id="7sT3qUHH8tz0WFLtc2-D-289" value="" style="rounded=0;whiteSpace=wrap;html=1;" vertex="1" parent="1">
          <mxGeometry x="879.99" y="834.37" width="15" height="15" as="geometry" />
        </mxCell>
        <mxCell id="7sT3qUHH8tz0WFLtc2-D-290" value="" style="rounded=0;whiteSpace=wrap;html=1;" vertex="1" parent="1">
          <mxGeometry x="879.99" y="864.37" width="15" height="15" as="geometry" />
        </mxCell>
        <mxCell id="7sT3qUHH8tz0WFLtc2-D-291" value="" style="rounded=0;whiteSpace=wrap;html=1;" vertex="1" parent="1">
          <mxGeometry x="879.99" y="889.37" width="15" height="15" as="geometry" />
        </mxCell>
        <mxCell id="7sT3qUHH8tz0WFLtc2-D-292" value="" style="rounded=0;whiteSpace=wrap;html=1;" vertex="1" parent="1">
          <mxGeometry x="879.99" y="784.37" width="15" height="15" as="geometry" />
        </mxCell>
        <mxCell id="7sT3qUHH8tz0WFLtc2-D-293" value="" style="rounded=0;whiteSpace=wrap;html=1;" vertex="1" parent="1">
          <mxGeometry x="906.24" y="729.37" width="15" height="15" as="geometry" />
        </mxCell>
        <mxCell id="7sT3qUHH8tz0WFLtc2-D-294" value="" style="rounded=0;whiteSpace=wrap;html=1;" vertex="1" parent="1">
          <mxGeometry x="906.24" y="749.37" width="15" height="15" as="geometry" />
        </mxCell>
        <mxCell id="7sT3qUHH8tz0WFLtc2-D-295" value="" style="rounded=0;whiteSpace=wrap;html=1;" vertex="1" parent="1">
          <mxGeometry x="906.24" y="809.37" width="15" height="15" as="geometry" />
        </mxCell>
        <mxCell id="7sT3qUHH8tz0WFLtc2-D-296" value="" style="rounded=0;whiteSpace=wrap;html=1;" vertex="1" parent="1">
          <mxGeometry x="906.24" y="834.37" width="15" height="15" as="geometry" />
        </mxCell>
        <mxCell id="7sT3qUHH8tz0WFLtc2-D-297" value="" style="rounded=0;whiteSpace=wrap;html=1;" vertex="1" parent="1">
          <mxGeometry x="906.24" y="864.37" width="15" height="15" as="geometry" />
        </mxCell>
        <mxCell id="7sT3qUHH8tz0WFLtc2-D-298" value="" style="rounded=0;whiteSpace=wrap;html=1;" vertex="1" parent="1">
          <mxGeometry x="906.24" y="889.37" width="15" height="15" as="geometry" />
        </mxCell>
        <mxCell id="7sT3qUHH8tz0WFLtc2-D-299" value="" style="rounded=0;whiteSpace=wrap;html=1;" vertex="1" parent="1">
          <mxGeometry x="906.24" y="784.37" width="15" height="15" as="geometry" />
        </mxCell>
        <mxCell id="7sT3qUHH8tz0WFLtc2-D-300" value="" style="rounded=0;whiteSpace=wrap;html=1;" vertex="1" parent="1">
          <mxGeometry x="933.74" y="729.37" width="15" height="15" as="geometry" />
        </mxCell>
        <mxCell id="7sT3qUHH8tz0WFLtc2-D-301" value="" style="rounded=0;whiteSpace=wrap;html=1;" vertex="1" parent="1">
          <mxGeometry x="933.74" y="749.37" width="15" height="15" as="geometry" />
        </mxCell>
        <mxCell id="7sT3qUHH8tz0WFLtc2-D-302" value="" style="rounded=0;whiteSpace=wrap;html=1;" vertex="1" parent="1">
          <mxGeometry x="933.74" y="809.37" width="15" height="15" as="geometry" />
        </mxCell>
        <mxCell id="7sT3qUHH8tz0WFLtc2-D-303" value="" style="rounded=0;whiteSpace=wrap;html=1;" vertex="1" parent="1">
          <mxGeometry x="933.74" y="834.37" width="15" height="15" as="geometry" />
        </mxCell>
        <mxCell id="7sT3qUHH8tz0WFLtc2-D-304" value="" style="rounded=0;whiteSpace=wrap;html=1;" vertex="1" parent="1">
          <mxGeometry x="933.74" y="864.37" width="15" height="15" as="geometry" />
        </mxCell>
        <mxCell id="7sT3qUHH8tz0WFLtc2-D-305" value="" style="rounded=0;whiteSpace=wrap;html=1;" vertex="1" parent="1">
          <mxGeometry x="933.74" y="889.37" width="15" height="15" as="geometry" />
        </mxCell>
        <mxCell id="7sT3qUHH8tz0WFLtc2-D-306" value="" style="rounded=0;whiteSpace=wrap;html=1;" vertex="1" parent="1">
          <mxGeometry x="933.74" y="784.37" width="15" height="15" as="geometry" />
        </mxCell>
        <mxCell id="7sT3qUHH8tz0WFLtc2-D-307" value="" style="rounded=0;whiteSpace=wrap;html=1;" vertex="1" parent="1">
          <mxGeometry x="959.99" y="729.37" width="15" height="15" as="geometry" />
        </mxCell>
        <mxCell id="7sT3qUHH8tz0WFLtc2-D-308" value="" style="rounded=0;whiteSpace=wrap;html=1;" vertex="1" parent="1">
          <mxGeometry x="959.99" y="749.37" width="15" height="15" as="geometry" />
        </mxCell>
        <mxCell id="7sT3qUHH8tz0WFLtc2-D-309" value="" style="rounded=0;whiteSpace=wrap;html=1;" vertex="1" parent="1">
          <mxGeometry x="959.99" y="809.37" width="15" height="15" as="geometry" />
        </mxCell>
        <mxCell id="7sT3qUHH8tz0WFLtc2-D-310" value="" style="rounded=0;whiteSpace=wrap;html=1;" vertex="1" parent="1">
          <mxGeometry x="959.99" y="834.37" width="15" height="15" as="geometry" />
        </mxCell>
        <mxCell id="7sT3qUHH8tz0WFLtc2-D-311" value="" style="rounded=0;whiteSpace=wrap;html=1;" vertex="1" parent="1">
          <mxGeometry x="959.99" y="864.37" width="15" height="15" as="geometry" />
        </mxCell>
        <mxCell id="7sT3qUHH8tz0WFLtc2-D-312" value="" style="rounded=0;whiteSpace=wrap;html=1;" vertex="1" parent="1">
          <mxGeometry x="959.99" y="889.37" width="15" height="15" as="geometry" />
        </mxCell>
        <mxCell id="7sT3qUHH8tz0WFLtc2-D-313" value="" style="rounded=0;whiteSpace=wrap;html=1;" vertex="1" parent="1">
          <mxGeometry x="959.99" y="784.37" width="15" height="15" as="geometry" />
        </mxCell>
        <mxCell id="7sT3qUHH8tz0WFLtc2-D-314" value="" style="rounded=0;whiteSpace=wrap;html=1;" vertex="1" parent="1">
          <mxGeometry x="987.49" y="729.37" width="15" height="15" as="geometry" />
        </mxCell>
        <mxCell id="7sT3qUHH8tz0WFLtc2-D-315" value="" style="rounded=0;whiteSpace=wrap;html=1;" vertex="1" parent="1">
          <mxGeometry x="987.49" y="749.37" width="15" height="15" as="geometry" />
        </mxCell>
        <mxCell id="7sT3qUHH8tz0WFLtc2-D-316" value="" style="rounded=0;whiteSpace=wrap;html=1;" vertex="1" parent="1">
          <mxGeometry x="987.49" y="809.37" width="15" height="15" as="geometry" />
        </mxCell>
        <mxCell id="7sT3qUHH8tz0WFLtc2-D-317" value="" style="rounded=0;whiteSpace=wrap;html=1;" vertex="1" parent="1">
          <mxGeometry x="987.49" y="834.37" width="15" height="15" as="geometry" />
        </mxCell>
        <mxCell id="7sT3qUHH8tz0WFLtc2-D-318" value="" style="rounded=0;whiteSpace=wrap;html=1;" vertex="1" parent="1">
          <mxGeometry x="987.49" y="864.37" width="15" height="15" as="geometry" />
        </mxCell>
        <mxCell id="7sT3qUHH8tz0WFLtc2-D-319" value="" style="rounded=0;whiteSpace=wrap;html=1;" vertex="1" parent="1">
          <mxGeometry x="987.49" y="889.37" width="15" height="15" as="geometry" />
        </mxCell>
        <mxCell id="7sT3qUHH8tz0WFLtc2-D-320" value="" style="rounded=0;whiteSpace=wrap;html=1;" vertex="1" parent="1">
          <mxGeometry x="987.49" y="784.37" width="15" height="15" as="geometry" />
        </mxCell>
        <mxCell id="7sT3qUHH8tz0WFLtc2-D-321" value="" style="rounded=0;whiteSpace=wrap;html=1;" vertex="1" parent="1">
          <mxGeometry x="1017.49" y="729.37" width="15" height="15" as="geometry" />
        </mxCell>
        <mxCell id="7sT3qUHH8tz0WFLtc2-D-322" value="" style="rounded=0;whiteSpace=wrap;html=1;" vertex="1" parent="1">
          <mxGeometry x="1017.49" y="749.37" width="15" height="15" as="geometry" />
        </mxCell>
        <mxCell id="7sT3qUHH8tz0WFLtc2-D-323" value="" style="rounded=0;whiteSpace=wrap;html=1;" vertex="1" parent="1">
          <mxGeometry x="1017.49" y="809.37" width="15" height="15" as="geometry" />
        </mxCell>
        <mxCell id="7sT3qUHH8tz0WFLtc2-D-324" value="" style="rounded=0;whiteSpace=wrap;html=1;" vertex="1" parent="1">
          <mxGeometry x="1017.49" y="834.37" width="15" height="15" as="geometry" />
        </mxCell>
        <mxCell id="7sT3qUHH8tz0WFLtc2-D-325" value="" style="rounded=0;whiteSpace=wrap;html=1;" vertex="1" parent="1">
          <mxGeometry x="1017.49" y="864.37" width="15" height="15" as="geometry" />
        </mxCell>
        <mxCell id="7sT3qUHH8tz0WFLtc2-D-326" value="" style="rounded=0;whiteSpace=wrap;html=1;" vertex="1" parent="1">
          <mxGeometry x="1017.49" y="889.37" width="15" height="15" as="geometry" />
        </mxCell>
        <mxCell id="7sT3qUHH8tz0WFLtc2-D-327" value="" style="rounded=0;whiteSpace=wrap;html=1;" vertex="1" parent="1">
          <mxGeometry x="1017.49" y="784.37" width="15" height="15" as="geometry" />
        </mxCell>
        <mxCell id="7sT3qUHH8tz0WFLtc2-D-328" value="" style="rounded=0;whiteSpace=wrap;html=1;" vertex="1" parent="1">
          <mxGeometry x="1044.99" y="729.37" width="15" height="15" as="geometry" />
        </mxCell>
        <mxCell id="7sT3qUHH8tz0WFLtc2-D-329" value="" style="rounded=0;whiteSpace=wrap;html=1;" vertex="1" parent="1">
          <mxGeometry x="1044.99" y="749.37" width="15" height="15" as="geometry" />
        </mxCell>
        <mxCell id="7sT3qUHH8tz0WFLtc2-D-330" value="" style="rounded=0;whiteSpace=wrap;html=1;" vertex="1" parent="1">
          <mxGeometry x="1044.99" y="809.37" width="15" height="15" as="geometry" />
        </mxCell>
        <mxCell id="7sT3qUHH8tz0WFLtc2-D-331" value="" style="rounded=0;whiteSpace=wrap;html=1;" vertex="1" parent="1">
          <mxGeometry x="1044.99" y="834.37" width="15" height="15" as="geometry" />
        </mxCell>
        <mxCell id="7sT3qUHH8tz0WFLtc2-D-332" value="" style="rounded=0;whiteSpace=wrap;html=1;" vertex="1" parent="1">
          <mxGeometry x="1044.99" y="864.37" width="15" height="15" as="geometry" />
        </mxCell>
        <mxCell id="7sT3qUHH8tz0WFLtc2-D-333" value="" style="rounded=0;whiteSpace=wrap;html=1;" vertex="1" parent="1">
          <mxGeometry x="1044.99" y="889.37" width="15" height="15" as="geometry" />
        </mxCell>
        <mxCell id="7sT3qUHH8tz0WFLtc2-D-334" value="" style="rounded=0;whiteSpace=wrap;html=1;" vertex="1" parent="1">
          <mxGeometry x="1044.99" y="784.37" width="15" height="15" as="geometry" />
        </mxCell>
        <mxCell id="7sT3qUHH8tz0WFLtc2-D-335" value="" style="rounded=0;whiteSpace=wrap;html=1;" vertex="1" parent="1">
          <mxGeometry x="1069.99" y="729.37" width="15" height="15" as="geometry" />
        </mxCell>
        <mxCell id="7sT3qUHH8tz0WFLtc2-D-336" value="" style="rounded=0;whiteSpace=wrap;html=1;" vertex="1" parent="1">
          <mxGeometry x="1069.99" y="749.37" width="15" height="15" as="geometry" />
        </mxCell>
        <mxCell id="7sT3qUHH8tz0WFLtc2-D-337" value="" style="rounded=0;whiteSpace=wrap;html=1;" vertex="1" parent="1">
          <mxGeometry x="1069.99" y="809.37" width="15" height="15" as="geometry" />
        </mxCell>
        <mxCell id="7sT3qUHH8tz0WFLtc2-D-338" value="" style="rounded=0;whiteSpace=wrap;html=1;" vertex="1" parent="1">
          <mxGeometry x="1069.99" y="834.37" width="15" height="15" as="geometry" />
        </mxCell>
        <mxCell id="7sT3qUHH8tz0WFLtc2-D-339" value="" style="rounded=0;whiteSpace=wrap;html=1;" vertex="1" parent="1">
          <mxGeometry x="1069.99" y="864.37" width="15" height="15" as="geometry" />
        </mxCell>
        <mxCell id="7sT3qUHH8tz0WFLtc2-D-340" value="" style="rounded=0;whiteSpace=wrap;html=1;" vertex="1" parent="1">
          <mxGeometry x="1069.99" y="889.37" width="15" height="15" as="geometry" />
        </mxCell>
        <mxCell id="7sT3qUHH8tz0WFLtc2-D-341" value="" style="rounded=0;whiteSpace=wrap;html=1;" vertex="1" parent="1">
          <mxGeometry x="1069.99" y="784.37" width="15" height="15" as="geometry" />
        </mxCell>
        <mxCell id="7sT3qUHH8tz0WFLtc2-D-342" value="" style="rounded=0;whiteSpace=wrap;html=1;" vertex="1" parent="1">
          <mxGeometry x="1097.49" y="729.37" width="15" height="15" as="geometry" />
        </mxCell>
        <mxCell id="7sT3qUHH8tz0WFLtc2-D-343" value="" style="rounded=0;whiteSpace=wrap;html=1;" vertex="1" parent="1">
          <mxGeometry x="1097.49" y="749.37" width="15" height="15" as="geometry" />
        </mxCell>
        <mxCell id="7sT3qUHH8tz0WFLtc2-D-344" value="" style="rounded=0;whiteSpace=wrap;html=1;" vertex="1" parent="1">
          <mxGeometry x="1097.49" y="809.37" width="15" height="15" as="geometry" />
        </mxCell>
        <mxCell id="7sT3qUHH8tz0WFLtc2-D-345" value="" style="rounded=0;whiteSpace=wrap;html=1;" vertex="1" parent="1">
          <mxGeometry x="1097.49" y="834.37" width="15" height="15" as="geometry" />
        </mxCell>
        <mxCell id="7sT3qUHH8tz0WFLtc2-D-346" value="" style="rounded=0;whiteSpace=wrap;html=1;" vertex="1" parent="1">
          <mxGeometry x="1097.49" y="864.37" width="15" height="15" as="geometry" />
        </mxCell>
        <mxCell id="7sT3qUHH8tz0WFLtc2-D-347" value="" style="rounded=0;whiteSpace=wrap;html=1;" vertex="1" parent="1">
          <mxGeometry x="1097.49" y="889.37" width="15" height="15" as="geometry" />
        </mxCell>
        <mxCell id="7sT3qUHH8tz0WFLtc2-D-348" value="" style="rounded=0;whiteSpace=wrap;html=1;" vertex="1" parent="1">
          <mxGeometry x="1097.49" y="784.37" width="15" height="15" as="geometry" />
        </mxCell>
        <mxCell id="7sT3qUHH8tz0WFLtc2-D-349" value="" style="endArrow=none;html=1;rounded=0;strokeWidth=4;strokeColor=#0000FF;" edge="1" parent="1">
          <mxGeometry width="50" height="50" relative="1" as="geometry">
            <mxPoint x="552.49" y="1099.37" as="sourcePoint" />
            <mxPoint x="1117.49" y="1099.37" as="targetPoint" />
          </mxGeometry>
        </mxCell>
        <mxCell id="7sT3qUHH8tz0WFLtc2-D-350" value="" style="rounded=0;whiteSpace=wrap;html=1;" vertex="1" parent="1">
          <mxGeometry x="560" y="1104.37" width="15" height="15" as="geometry" />
        </mxCell>
        <mxCell id="7sT3qUHH8tz0WFLtc2-D-351" value="" style="endArrow=none;html=1;rounded=0;strokeWidth=4;strokeColor=#FF0000;" edge="1" parent="1">
          <mxGeometry width="50" height="50" relative="1" as="geometry">
            <mxPoint x="552.49" y="1153.9" as="sourcePoint" />
            <mxPoint x="1117.49" y="1153.9" as="targetPoint" />
          </mxGeometry>
        </mxCell>
        <mxCell id="7sT3qUHH8tz0WFLtc2-D-352" value="" style="rounded=0;whiteSpace=wrap;html=1;" vertex="1" parent="1">
          <mxGeometry x="560" y="1129.37" width="15" height="15" as="geometry" />
        </mxCell>
        <mxCell id="7sT3qUHH8tz0WFLtc2-D-353" value="" style="rounded=0;whiteSpace=wrap;html=1;" vertex="1" parent="1">
          <mxGeometry x="559.99" y="994.37" width="15" height="15" as="geometry" />
        </mxCell>
        <mxCell id="7sT3qUHH8tz0WFLtc2-D-354" value="" style="rounded=0;whiteSpace=wrap;html=1;" vertex="1" parent="1">
          <mxGeometry x="559.99" y="1019.37" width="15" height="15" as="geometry" />
        </mxCell>
        <mxCell id="7sT3qUHH8tz0WFLtc2-D-355" value="" style="rounded=0;whiteSpace=wrap;html=1;" vertex="1" parent="1">
          <mxGeometry x="559.99" y="1049.37" width="15" height="15" as="geometry" />
        </mxCell>
        <mxCell id="7sT3qUHH8tz0WFLtc2-D-356" value="" style="rounded=0;whiteSpace=wrap;html=1;" vertex="1" parent="1">
          <mxGeometry x="559.99" y="1074.37" width="15" height="15" as="geometry" />
        </mxCell>
        <mxCell id="7sT3qUHH8tz0WFLtc2-D-357" value="" style="rounded=0;whiteSpace=wrap;html=1;" vertex="1" parent="1">
          <mxGeometry x="559.99" y="969.37" width="15" height="15" as="geometry" />
        </mxCell>
        <mxCell id="7sT3qUHH8tz0WFLtc2-D-358" value="" style="rounded=0;whiteSpace=wrap;html=1;" vertex="1" parent="1">
          <mxGeometry x="590" y="1104.37" width="15" height="15" as="geometry" />
        </mxCell>
        <mxCell id="7sT3qUHH8tz0WFLtc2-D-359" value="" style="rounded=0;whiteSpace=wrap;html=1;" vertex="1" parent="1">
          <mxGeometry x="590" y="1129.37" width="15" height="15" as="geometry" />
        </mxCell>
        <mxCell id="7sT3qUHH8tz0WFLtc2-D-360" value="" style="rounded=0;whiteSpace=wrap;html=1;" vertex="1" parent="1">
          <mxGeometry x="589.99" y="994.37" width="15" height="15" as="geometry" />
        </mxCell>
        <mxCell id="7sT3qUHH8tz0WFLtc2-D-361" value="" style="rounded=0;whiteSpace=wrap;html=1;" vertex="1" parent="1">
          <mxGeometry x="589.99" y="1019.37" width="15" height="15" as="geometry" />
        </mxCell>
        <mxCell id="7sT3qUHH8tz0WFLtc2-D-362" value="" style="rounded=0;whiteSpace=wrap;html=1;" vertex="1" parent="1">
          <mxGeometry x="589.99" y="1049.37" width="15" height="15" as="geometry" />
        </mxCell>
        <mxCell id="7sT3qUHH8tz0WFLtc2-D-363" value="" style="rounded=0;whiteSpace=wrap;html=1;" vertex="1" parent="1">
          <mxGeometry x="589.99" y="1074.37" width="15" height="15" as="geometry" />
        </mxCell>
        <mxCell id="7sT3qUHH8tz0WFLtc2-D-364" value="" style="rounded=0;whiteSpace=wrap;html=1;" vertex="1" parent="1">
          <mxGeometry x="589.99" y="969.37" width="15" height="15" as="geometry" />
        </mxCell>
        <mxCell id="7sT3qUHH8tz0WFLtc2-D-365" value="" style="rounded=0;whiteSpace=wrap;html=1;" vertex="1" parent="1">
          <mxGeometry x="620" y="1104.37" width="15" height="15" as="geometry" />
        </mxCell>
        <mxCell id="7sT3qUHH8tz0WFLtc2-D-366" value="" style="rounded=0;whiteSpace=wrap;html=1;" vertex="1" parent="1">
          <mxGeometry x="620" y="1129.37" width="15" height="15" as="geometry" />
        </mxCell>
        <mxCell id="7sT3qUHH8tz0WFLtc2-D-367" value="" style="rounded=0;whiteSpace=wrap;html=1;" vertex="1" parent="1">
          <mxGeometry x="619.99" y="994.37" width="15" height="15" as="geometry" />
        </mxCell>
        <mxCell id="7sT3qUHH8tz0WFLtc2-D-368" value="" style="rounded=0;whiteSpace=wrap;html=1;" vertex="1" parent="1">
          <mxGeometry x="619.99" y="1019.37" width="15" height="15" as="geometry" />
        </mxCell>
        <mxCell id="7sT3qUHH8tz0WFLtc2-D-369" value="" style="rounded=0;whiteSpace=wrap;html=1;" vertex="1" parent="1">
          <mxGeometry x="619.99" y="1049.37" width="15" height="15" as="geometry" />
        </mxCell>
        <mxCell id="7sT3qUHH8tz0WFLtc2-D-370" value="" style="rounded=0;whiteSpace=wrap;html=1;" vertex="1" parent="1">
          <mxGeometry x="619.99" y="1074.37" width="15" height="15" as="geometry" />
        </mxCell>
        <mxCell id="7sT3qUHH8tz0WFLtc2-D-371" value="" style="rounded=0;whiteSpace=wrap;html=1;" vertex="1" parent="1">
          <mxGeometry x="619.99" y="969.37" width="15" height="15" as="geometry" />
        </mxCell>
        <mxCell id="7sT3qUHH8tz0WFLtc2-D-372" value="" style="rounded=0;whiteSpace=wrap;html=1;" vertex="1" parent="1">
          <mxGeometry x="650" y="1104.37" width="15" height="15" as="geometry" />
        </mxCell>
        <mxCell id="7sT3qUHH8tz0WFLtc2-D-373" value="" style="rounded=0;whiteSpace=wrap;html=1;" vertex="1" parent="1">
          <mxGeometry x="650" y="1129.37" width="15" height="15" as="geometry" />
        </mxCell>
        <mxCell id="7sT3qUHH8tz0WFLtc2-D-374" value="" style="rounded=0;whiteSpace=wrap;html=1;" vertex="1" parent="1">
          <mxGeometry x="649.99" y="994.37" width="15" height="15" as="geometry" />
        </mxCell>
        <mxCell id="7sT3qUHH8tz0WFLtc2-D-375" value="" style="rounded=0;whiteSpace=wrap;html=1;" vertex="1" parent="1">
          <mxGeometry x="649.99" y="1019.37" width="15" height="15" as="geometry" />
        </mxCell>
        <mxCell id="7sT3qUHH8tz0WFLtc2-D-376" value="" style="rounded=0;whiteSpace=wrap;html=1;" vertex="1" parent="1">
          <mxGeometry x="649.99" y="1049.37" width="15" height="15" as="geometry" />
        </mxCell>
        <mxCell id="7sT3qUHH8tz0WFLtc2-D-377" value="" style="rounded=0;whiteSpace=wrap;html=1;" vertex="1" parent="1">
          <mxGeometry x="649.99" y="1074.37" width="15" height="15" as="geometry" />
        </mxCell>
        <mxCell id="7sT3qUHH8tz0WFLtc2-D-378" value="" style="rounded=0;whiteSpace=wrap;html=1;" vertex="1" parent="1">
          <mxGeometry x="649.99" y="969.37" width="15" height="15" as="geometry" />
        </mxCell>
        <mxCell id="7sT3qUHH8tz0WFLtc2-D-379" value="" style="rounded=0;whiteSpace=wrap;html=1;" vertex="1" parent="1">
          <mxGeometry x="680" y="1104.37" width="15" height="15" as="geometry" />
        </mxCell>
        <mxCell id="7sT3qUHH8tz0WFLtc2-D-380" value="" style="rounded=0;whiteSpace=wrap;html=1;" vertex="1" parent="1">
          <mxGeometry x="680" y="1129.37" width="15" height="15" as="geometry" />
        </mxCell>
        <mxCell id="7sT3qUHH8tz0WFLtc2-D-381" value="" style="rounded=0;whiteSpace=wrap;html=1;" vertex="1" parent="1">
          <mxGeometry x="679.99" y="994.37" width="15" height="15" as="geometry" />
        </mxCell>
        <mxCell id="7sT3qUHH8tz0WFLtc2-D-382" value="" style="rounded=0;whiteSpace=wrap;html=1;" vertex="1" parent="1">
          <mxGeometry x="679.99" y="1019.37" width="15" height="15" as="geometry" />
        </mxCell>
        <mxCell id="7sT3qUHH8tz0WFLtc2-D-383" value="" style="rounded=0;whiteSpace=wrap;html=1;" vertex="1" parent="1">
          <mxGeometry x="679.99" y="1049.37" width="15" height="15" as="geometry" />
        </mxCell>
        <mxCell id="7sT3qUHH8tz0WFLtc2-D-384" value="" style="rounded=0;whiteSpace=wrap;html=1;" vertex="1" parent="1">
          <mxGeometry x="679.99" y="1074.37" width="15" height="15" as="geometry" />
        </mxCell>
        <mxCell id="7sT3qUHH8tz0WFLtc2-D-385" value="" style="rounded=0;whiteSpace=wrap;html=1;" vertex="1" parent="1">
          <mxGeometry x="679.99" y="969.37" width="15" height="15" as="geometry" />
        </mxCell>
        <mxCell id="7sT3qUHH8tz0WFLtc2-D-386" value="" style="rounded=0;whiteSpace=wrap;html=1;" vertex="1" parent="1">
          <mxGeometry x="710" y="1104.37" width="15" height="15" as="geometry" />
        </mxCell>
        <mxCell id="7sT3qUHH8tz0WFLtc2-D-387" value="" style="rounded=0;whiteSpace=wrap;html=1;" vertex="1" parent="1">
          <mxGeometry x="710" y="1129.37" width="15" height="15" as="geometry" />
        </mxCell>
        <mxCell id="7sT3qUHH8tz0WFLtc2-D-388" value="" style="rounded=0;whiteSpace=wrap;html=1;" vertex="1" parent="1">
          <mxGeometry x="709.99" y="994.37" width="15" height="15" as="geometry" />
        </mxCell>
        <mxCell id="7sT3qUHH8tz0WFLtc2-D-389" value="" style="rounded=0;whiteSpace=wrap;html=1;" vertex="1" parent="1">
          <mxGeometry x="709.99" y="1019.37" width="15" height="15" as="geometry" />
        </mxCell>
        <mxCell id="7sT3qUHH8tz0WFLtc2-D-390" value="" style="rounded=0;whiteSpace=wrap;html=1;" vertex="1" parent="1">
          <mxGeometry x="709.99" y="1049.37" width="15" height="15" as="geometry" />
        </mxCell>
        <mxCell id="7sT3qUHH8tz0WFLtc2-D-391" value="" style="rounded=0;whiteSpace=wrap;html=1;" vertex="1" parent="1">
          <mxGeometry x="709.99" y="1074.37" width="15" height="15" as="geometry" />
        </mxCell>
        <mxCell id="7sT3qUHH8tz0WFLtc2-D-392" value="" style="rounded=0;whiteSpace=wrap;html=1;" vertex="1" parent="1">
          <mxGeometry x="709.99" y="969.37" width="15" height="15" as="geometry" />
        </mxCell>
        <mxCell id="7sT3qUHH8tz0WFLtc2-D-393" value="" style="rounded=0;whiteSpace=wrap;html=1;" vertex="1" parent="1">
          <mxGeometry x="740" y="1104.37" width="15" height="15" as="geometry" />
        </mxCell>
        <mxCell id="7sT3qUHH8tz0WFLtc2-D-394" value="" style="rounded=0;whiteSpace=wrap;html=1;" vertex="1" parent="1">
          <mxGeometry x="740" y="1129.37" width="15" height="15" as="geometry" />
        </mxCell>
        <mxCell id="7sT3qUHH8tz0WFLtc2-D-395" value="" style="rounded=0;whiteSpace=wrap;html=1;" vertex="1" parent="1">
          <mxGeometry x="739.99" y="994.37" width="15" height="15" as="geometry" />
        </mxCell>
        <mxCell id="7sT3qUHH8tz0WFLtc2-D-396" value="" style="rounded=0;whiteSpace=wrap;html=1;" vertex="1" parent="1">
          <mxGeometry x="739.99" y="1019.37" width="15" height="15" as="geometry" />
        </mxCell>
        <mxCell id="7sT3qUHH8tz0WFLtc2-D-397" value="" style="rounded=0;whiteSpace=wrap;html=1;" vertex="1" parent="1">
          <mxGeometry x="739.99" y="1049.37" width="15" height="15" as="geometry" />
        </mxCell>
        <mxCell id="7sT3qUHH8tz0WFLtc2-D-398" value="" style="rounded=0;whiteSpace=wrap;html=1;" vertex="1" parent="1">
          <mxGeometry x="739.99" y="1074.37" width="15" height="15" as="geometry" />
        </mxCell>
        <mxCell id="7sT3qUHH8tz0WFLtc2-D-399" value="" style="rounded=0;whiteSpace=wrap;html=1;" vertex="1" parent="1">
          <mxGeometry x="739.99" y="969.37" width="15" height="15" as="geometry" />
        </mxCell>
        <mxCell id="7sT3qUHH8tz0WFLtc2-D-400" value="" style="rounded=0;whiteSpace=wrap;html=1;" vertex="1" parent="1">
          <mxGeometry x="770" y="1104.37" width="15" height="15" as="geometry" />
        </mxCell>
        <mxCell id="7sT3qUHH8tz0WFLtc2-D-401" value="" style="rounded=0;whiteSpace=wrap;html=1;" vertex="1" parent="1">
          <mxGeometry x="770" y="1129.37" width="15" height="15" as="geometry" />
        </mxCell>
        <mxCell id="7sT3qUHH8tz0WFLtc2-D-402" value="" style="rounded=0;whiteSpace=wrap;html=1;" vertex="1" parent="1">
          <mxGeometry x="769.99" y="994.37" width="15" height="15" as="geometry" />
        </mxCell>
        <mxCell id="7sT3qUHH8tz0WFLtc2-D-403" value="" style="rounded=0;whiteSpace=wrap;html=1;" vertex="1" parent="1">
          <mxGeometry x="769.99" y="1019.37" width="15" height="15" as="geometry" />
        </mxCell>
        <mxCell id="7sT3qUHH8tz0WFLtc2-D-404" value="" style="rounded=0;whiteSpace=wrap;html=1;" vertex="1" parent="1">
          <mxGeometry x="769.99" y="1049.37" width="15" height="15" as="geometry" />
        </mxCell>
        <mxCell id="7sT3qUHH8tz0WFLtc2-D-405" value="" style="rounded=0;whiteSpace=wrap;html=1;" vertex="1" parent="1">
          <mxGeometry x="769.99" y="1074.37" width="15" height="15" as="geometry" />
        </mxCell>
        <mxCell id="7sT3qUHH8tz0WFLtc2-D-406" value="" style="rounded=0;whiteSpace=wrap;html=1;" vertex="1" parent="1">
          <mxGeometry x="769.99" y="969.37" width="15" height="15" as="geometry" />
        </mxCell>
        <mxCell id="7sT3qUHH8tz0WFLtc2-D-407" value="" style="rounded=0;whiteSpace=wrap;html=1;" vertex="1" parent="1">
          <mxGeometry x="800" y="1104.37" width="15" height="15" as="geometry" />
        </mxCell>
        <mxCell id="7sT3qUHH8tz0WFLtc2-D-408" value="" style="rounded=0;whiteSpace=wrap;html=1;" vertex="1" parent="1">
          <mxGeometry x="800" y="1129.37" width="15" height="15" as="geometry" />
        </mxCell>
        <mxCell id="7sT3qUHH8tz0WFLtc2-D-409" value="" style="rounded=0;whiteSpace=wrap;html=1;" vertex="1" parent="1">
          <mxGeometry x="799.99" y="994.37" width="15" height="15" as="geometry" />
        </mxCell>
        <mxCell id="7sT3qUHH8tz0WFLtc2-D-410" value="" style="rounded=0;whiteSpace=wrap;html=1;" vertex="1" parent="1">
          <mxGeometry x="799.99" y="1019.37" width="15" height="15" as="geometry" />
        </mxCell>
        <mxCell id="7sT3qUHH8tz0WFLtc2-D-411" value="" style="rounded=0;whiteSpace=wrap;html=1;" vertex="1" parent="1">
          <mxGeometry x="799.99" y="1049.37" width="15" height="15" as="geometry" />
        </mxCell>
        <mxCell id="7sT3qUHH8tz0WFLtc2-D-412" value="" style="rounded=0;whiteSpace=wrap;html=1;" vertex="1" parent="1">
          <mxGeometry x="799.99" y="1074.37" width="15" height="15" as="geometry" />
        </mxCell>
        <mxCell id="7sT3qUHH8tz0WFLtc2-D-413" value="" style="rounded=0;whiteSpace=wrap;html=1;" vertex="1" parent="1">
          <mxGeometry x="799.99" y="969.37" width="15" height="15" as="geometry" />
        </mxCell>
        <mxCell id="7sT3qUHH8tz0WFLtc2-D-414" value="" style="rounded=0;whiteSpace=wrap;html=1;" vertex="1" parent="1">
          <mxGeometry x="827.5" y="1104.37" width="15" height="15" as="geometry" />
        </mxCell>
        <mxCell id="7sT3qUHH8tz0WFLtc2-D-415" value="" style="rounded=0;whiteSpace=wrap;html=1;" vertex="1" parent="1">
          <mxGeometry x="827.5" y="1129.37" width="15" height="15" as="geometry" />
        </mxCell>
        <mxCell id="7sT3qUHH8tz0WFLtc2-D-416" value="" style="rounded=0;whiteSpace=wrap;html=1;" vertex="1" parent="1">
          <mxGeometry x="827.49" y="994.37" width="15" height="15" as="geometry" />
        </mxCell>
        <mxCell id="7sT3qUHH8tz0WFLtc2-D-417" value="" style="rounded=0;whiteSpace=wrap;html=1;" vertex="1" parent="1">
          <mxGeometry x="827.49" y="1019.37" width="15" height="15" as="geometry" />
        </mxCell>
        <mxCell id="7sT3qUHH8tz0WFLtc2-D-418" value="" style="rounded=0;whiteSpace=wrap;html=1;" vertex="1" parent="1">
          <mxGeometry x="827.49" y="1049.37" width="15" height="15" as="geometry" />
        </mxCell>
        <mxCell id="7sT3qUHH8tz0WFLtc2-D-419" value="" style="rounded=0;whiteSpace=wrap;html=1;" vertex="1" parent="1">
          <mxGeometry x="827.49" y="1074.37" width="15" height="15" as="geometry" />
        </mxCell>
        <mxCell id="7sT3qUHH8tz0WFLtc2-D-420" value="" style="rounded=0;whiteSpace=wrap;html=1;" vertex="1" parent="1">
          <mxGeometry x="827.49" y="969.37" width="15" height="15" as="geometry" />
        </mxCell>
        <mxCell id="7sT3qUHH8tz0WFLtc2-D-421" value="" style="rounded=0;whiteSpace=wrap;html=1;" vertex="1" parent="1">
          <mxGeometry x="852.5" y="1104.37" width="15" height="15" as="geometry" />
        </mxCell>
        <mxCell id="7sT3qUHH8tz0WFLtc2-D-422" value="" style="rounded=0;whiteSpace=wrap;html=1;" vertex="1" parent="1">
          <mxGeometry x="852.5" y="1129.37" width="15" height="15" as="geometry" />
        </mxCell>
        <mxCell id="7sT3qUHH8tz0WFLtc2-D-423" value="" style="rounded=0;whiteSpace=wrap;html=1;" vertex="1" parent="1">
          <mxGeometry x="852.49" y="994.37" width="15" height="15" as="geometry" />
        </mxCell>
        <mxCell id="7sT3qUHH8tz0WFLtc2-D-424" value="" style="rounded=0;whiteSpace=wrap;html=1;" vertex="1" parent="1">
          <mxGeometry x="852.49" y="1019.37" width="15" height="15" as="geometry" />
        </mxCell>
        <mxCell id="7sT3qUHH8tz0WFLtc2-D-425" value="" style="rounded=0;whiteSpace=wrap;html=1;" vertex="1" parent="1">
          <mxGeometry x="852.49" y="1049.37" width="15" height="15" as="geometry" />
        </mxCell>
        <mxCell id="7sT3qUHH8tz0WFLtc2-D-426" value="" style="rounded=0;whiteSpace=wrap;html=1;" vertex="1" parent="1">
          <mxGeometry x="852.49" y="1074.37" width="15" height="15" as="geometry" />
        </mxCell>
        <mxCell id="7sT3qUHH8tz0WFLtc2-D-427" value="" style="rounded=0;whiteSpace=wrap;html=1;" vertex="1" parent="1">
          <mxGeometry x="852.49" y="969.37" width="15" height="15" as="geometry" />
        </mxCell>
        <mxCell id="7sT3qUHH8tz0WFLtc2-D-428" value="" style="rounded=0;whiteSpace=wrap;html=1;" vertex="1" parent="1">
          <mxGeometry x="880" y="1104.37" width="15" height="15" as="geometry" />
        </mxCell>
        <mxCell id="7sT3qUHH8tz0WFLtc2-D-429" value="" style="rounded=0;whiteSpace=wrap;html=1;" vertex="1" parent="1">
          <mxGeometry x="880" y="1129.37" width="15" height="15" as="geometry" />
        </mxCell>
        <mxCell id="7sT3qUHH8tz0WFLtc2-D-430" value="" style="rounded=0;whiteSpace=wrap;html=1;" vertex="1" parent="1">
          <mxGeometry x="879.99" y="994.37" width="15" height="15" as="geometry" />
        </mxCell>
        <mxCell id="7sT3qUHH8tz0WFLtc2-D-431" value="" style="rounded=0;whiteSpace=wrap;html=1;" vertex="1" parent="1">
          <mxGeometry x="879.99" y="1019.37" width="15" height="15" as="geometry" />
        </mxCell>
        <mxCell id="7sT3qUHH8tz0WFLtc2-D-432" value="" style="rounded=0;whiteSpace=wrap;html=1;" vertex="1" parent="1">
          <mxGeometry x="879.99" y="1049.37" width="15" height="15" as="geometry" />
        </mxCell>
        <mxCell id="7sT3qUHH8tz0WFLtc2-D-433" value="" style="rounded=0;whiteSpace=wrap;html=1;" vertex="1" parent="1">
          <mxGeometry x="879.99" y="1074.37" width="15" height="15" as="geometry" />
        </mxCell>
        <mxCell id="7sT3qUHH8tz0WFLtc2-D-434" value="" style="rounded=0;whiteSpace=wrap;html=1;" vertex="1" parent="1">
          <mxGeometry x="879.99" y="969.37" width="15" height="15" as="geometry" />
        </mxCell>
        <mxCell id="7sT3qUHH8tz0WFLtc2-D-435" value="" style="rounded=0;whiteSpace=wrap;html=1;" vertex="1" parent="1">
          <mxGeometry x="906.25" y="1104.37" width="15" height="15" as="geometry" />
        </mxCell>
        <mxCell id="7sT3qUHH8tz0WFLtc2-D-436" value="" style="rounded=0;whiteSpace=wrap;html=1;" vertex="1" parent="1">
          <mxGeometry x="906.25" y="1129.37" width="15" height="15" as="geometry" />
        </mxCell>
        <mxCell id="7sT3qUHH8tz0WFLtc2-D-437" value="" style="rounded=0;whiteSpace=wrap;html=1;" vertex="1" parent="1">
          <mxGeometry x="906.24" y="994.37" width="15" height="15" as="geometry" />
        </mxCell>
        <mxCell id="7sT3qUHH8tz0WFLtc2-D-438" value="" style="rounded=0;whiteSpace=wrap;html=1;" vertex="1" parent="1">
          <mxGeometry x="906.24" y="1019.37" width="15" height="15" as="geometry" />
        </mxCell>
        <mxCell id="7sT3qUHH8tz0WFLtc2-D-439" value="" style="rounded=0;whiteSpace=wrap;html=1;" vertex="1" parent="1">
          <mxGeometry x="906.24" y="1049.37" width="15" height="15" as="geometry" />
        </mxCell>
        <mxCell id="7sT3qUHH8tz0WFLtc2-D-440" value="" style="rounded=0;whiteSpace=wrap;html=1;" vertex="1" parent="1">
          <mxGeometry x="906.24" y="1074.37" width="15" height="15" as="geometry" />
        </mxCell>
        <mxCell id="7sT3qUHH8tz0WFLtc2-D-441" value="" style="rounded=0;whiteSpace=wrap;html=1;" vertex="1" parent="1">
          <mxGeometry x="906.24" y="969.37" width="15" height="15" as="geometry" />
        </mxCell>
        <mxCell id="7sT3qUHH8tz0WFLtc2-D-442" value="" style="rounded=0;whiteSpace=wrap;html=1;" vertex="1" parent="1">
          <mxGeometry x="933.75" y="1104.37" width="15" height="15" as="geometry" />
        </mxCell>
        <mxCell id="7sT3qUHH8tz0WFLtc2-D-443" value="" style="rounded=0;whiteSpace=wrap;html=1;" vertex="1" parent="1">
          <mxGeometry x="933.75" y="1129.37" width="15" height="15" as="geometry" />
        </mxCell>
        <mxCell id="7sT3qUHH8tz0WFLtc2-D-444" value="" style="rounded=0;whiteSpace=wrap;html=1;" vertex="1" parent="1">
          <mxGeometry x="933.74" y="994.37" width="15" height="15" as="geometry" />
        </mxCell>
        <mxCell id="7sT3qUHH8tz0WFLtc2-D-445" value="" style="rounded=0;whiteSpace=wrap;html=1;" vertex="1" parent="1">
          <mxGeometry x="933.74" y="1019.37" width="15" height="15" as="geometry" />
        </mxCell>
        <mxCell id="7sT3qUHH8tz0WFLtc2-D-446" value="" style="rounded=0;whiteSpace=wrap;html=1;" vertex="1" parent="1">
          <mxGeometry x="933.74" y="1049.37" width="15" height="15" as="geometry" />
        </mxCell>
        <mxCell id="7sT3qUHH8tz0WFLtc2-D-447" value="" style="rounded=0;whiteSpace=wrap;html=1;" vertex="1" parent="1">
          <mxGeometry x="933.74" y="1074.37" width="15" height="15" as="geometry" />
        </mxCell>
        <mxCell id="7sT3qUHH8tz0WFLtc2-D-448" value="" style="rounded=0;whiteSpace=wrap;html=1;" vertex="1" parent="1">
          <mxGeometry x="933.74" y="969.37" width="15" height="15" as="geometry" />
        </mxCell>
        <mxCell id="7sT3qUHH8tz0WFLtc2-D-449" value="" style="rounded=0;whiteSpace=wrap;html=1;" vertex="1" parent="1">
          <mxGeometry x="960" y="1104.37" width="15" height="15" as="geometry" />
        </mxCell>
        <mxCell id="7sT3qUHH8tz0WFLtc2-D-450" value="" style="rounded=0;whiteSpace=wrap;html=1;" vertex="1" parent="1">
          <mxGeometry x="960" y="1129.37" width="15" height="15" as="geometry" />
        </mxCell>
        <mxCell id="7sT3qUHH8tz0WFLtc2-D-451" value="" style="rounded=0;whiteSpace=wrap;html=1;" vertex="1" parent="1">
          <mxGeometry x="959.99" y="994.37" width="15" height="15" as="geometry" />
        </mxCell>
        <mxCell id="7sT3qUHH8tz0WFLtc2-D-452" value="" style="rounded=0;whiteSpace=wrap;html=1;" vertex="1" parent="1">
          <mxGeometry x="959.99" y="1019.37" width="15" height="15" as="geometry" />
        </mxCell>
        <mxCell id="7sT3qUHH8tz0WFLtc2-D-453" value="" style="rounded=0;whiteSpace=wrap;html=1;" vertex="1" parent="1">
          <mxGeometry x="959.99" y="1049.37" width="15" height="15" as="geometry" />
        </mxCell>
        <mxCell id="7sT3qUHH8tz0WFLtc2-D-454" value="" style="rounded=0;whiteSpace=wrap;html=1;" vertex="1" parent="1">
          <mxGeometry x="959.99" y="1074.37" width="15" height="15" as="geometry" />
        </mxCell>
        <mxCell id="7sT3qUHH8tz0WFLtc2-D-455" value="" style="rounded=0;whiteSpace=wrap;html=1;" vertex="1" parent="1">
          <mxGeometry x="959.99" y="969.37" width="15" height="15" as="geometry" />
        </mxCell>
        <mxCell id="7sT3qUHH8tz0WFLtc2-D-456" value="" style="rounded=0;whiteSpace=wrap;html=1;" vertex="1" parent="1">
          <mxGeometry x="987.5" y="1104.37" width="15" height="15" as="geometry" />
        </mxCell>
        <mxCell id="7sT3qUHH8tz0WFLtc2-D-457" value="" style="rounded=0;whiteSpace=wrap;html=1;" vertex="1" parent="1">
          <mxGeometry x="987.5" y="1129.37" width="15" height="15" as="geometry" />
        </mxCell>
        <mxCell id="7sT3qUHH8tz0WFLtc2-D-458" value="" style="rounded=0;whiteSpace=wrap;html=1;" vertex="1" parent="1">
          <mxGeometry x="987.49" y="994.37" width="15" height="15" as="geometry" />
        </mxCell>
        <mxCell id="7sT3qUHH8tz0WFLtc2-D-459" value="" style="rounded=0;whiteSpace=wrap;html=1;" vertex="1" parent="1">
          <mxGeometry x="987.49" y="1019.37" width="15" height="15" as="geometry" />
        </mxCell>
        <mxCell id="7sT3qUHH8tz0WFLtc2-D-460" value="" style="rounded=0;whiteSpace=wrap;html=1;" vertex="1" parent="1">
          <mxGeometry x="987.49" y="1049.37" width="15" height="15" as="geometry" />
        </mxCell>
        <mxCell id="7sT3qUHH8tz0WFLtc2-D-461" value="" style="rounded=0;whiteSpace=wrap;html=1;" vertex="1" parent="1">
          <mxGeometry x="987.49" y="1074.37" width="15" height="15" as="geometry" />
        </mxCell>
        <mxCell id="7sT3qUHH8tz0WFLtc2-D-462" value="" style="rounded=0;whiteSpace=wrap;html=1;" vertex="1" parent="1">
          <mxGeometry x="987.49" y="969.37" width="15" height="15" as="geometry" />
        </mxCell>
        <mxCell id="7sT3qUHH8tz0WFLtc2-D-463" value="" style="rounded=0;whiteSpace=wrap;html=1;" vertex="1" parent="1">
          <mxGeometry x="1017.5" y="1104.37" width="15" height="15" as="geometry" />
        </mxCell>
        <mxCell id="7sT3qUHH8tz0WFLtc2-D-464" value="" style="rounded=0;whiteSpace=wrap;html=1;" vertex="1" parent="1">
          <mxGeometry x="1017.5" y="1129.37" width="15" height="15" as="geometry" />
        </mxCell>
        <mxCell id="7sT3qUHH8tz0WFLtc2-D-465" value="" style="rounded=0;whiteSpace=wrap;html=1;" vertex="1" parent="1">
          <mxGeometry x="1017.49" y="994.37" width="15" height="15" as="geometry" />
        </mxCell>
        <mxCell id="7sT3qUHH8tz0WFLtc2-D-466" value="" style="rounded=0;whiteSpace=wrap;html=1;" vertex="1" parent="1">
          <mxGeometry x="1017.49" y="1019.37" width="15" height="15" as="geometry" />
        </mxCell>
        <mxCell id="7sT3qUHH8tz0WFLtc2-D-467" value="" style="rounded=0;whiteSpace=wrap;html=1;" vertex="1" parent="1">
          <mxGeometry x="1017.49" y="1049.37" width="15" height="15" as="geometry" />
        </mxCell>
        <mxCell id="7sT3qUHH8tz0WFLtc2-D-468" value="" style="rounded=0;whiteSpace=wrap;html=1;" vertex="1" parent="1">
          <mxGeometry x="1017.49" y="1074.37" width="15" height="15" as="geometry" />
        </mxCell>
        <mxCell id="7sT3qUHH8tz0WFLtc2-D-469" value="" style="rounded=0;whiteSpace=wrap;html=1;" vertex="1" parent="1">
          <mxGeometry x="1017.49" y="969.37" width="15" height="15" as="geometry" />
        </mxCell>
        <mxCell id="7sT3qUHH8tz0WFLtc2-D-470" value="" style="rounded=0;whiteSpace=wrap;html=1;" vertex="1" parent="1">
          <mxGeometry x="1045" y="1104.37" width="15" height="15" as="geometry" />
        </mxCell>
        <mxCell id="7sT3qUHH8tz0WFLtc2-D-471" value="" style="rounded=0;whiteSpace=wrap;html=1;" vertex="1" parent="1">
          <mxGeometry x="1045" y="1129.37" width="15" height="15" as="geometry" />
        </mxCell>
        <mxCell id="7sT3qUHH8tz0WFLtc2-D-472" value="" style="rounded=0;whiteSpace=wrap;html=1;" vertex="1" parent="1">
          <mxGeometry x="1044.99" y="994.37" width="15" height="15" as="geometry" />
        </mxCell>
        <mxCell id="7sT3qUHH8tz0WFLtc2-D-473" value="" style="rounded=0;whiteSpace=wrap;html=1;" vertex="1" parent="1">
          <mxGeometry x="1044.99" y="1019.37" width="15" height="15" as="geometry" />
        </mxCell>
        <mxCell id="7sT3qUHH8tz0WFLtc2-D-474" value="" style="rounded=0;whiteSpace=wrap;html=1;" vertex="1" parent="1">
          <mxGeometry x="1044.99" y="1049.37" width="15" height="15" as="geometry" />
        </mxCell>
        <mxCell id="7sT3qUHH8tz0WFLtc2-D-475" value="" style="rounded=0;whiteSpace=wrap;html=1;" vertex="1" parent="1">
          <mxGeometry x="1044.99" y="1074.37" width="15" height="15" as="geometry" />
        </mxCell>
        <mxCell id="7sT3qUHH8tz0WFLtc2-D-476" value="" style="rounded=0;whiteSpace=wrap;html=1;" vertex="1" parent="1">
          <mxGeometry x="1044.99" y="969.37" width="15" height="15" as="geometry" />
        </mxCell>
        <mxCell id="7sT3qUHH8tz0WFLtc2-D-477" value="" style="rounded=0;whiteSpace=wrap;html=1;" vertex="1" parent="1">
          <mxGeometry x="1070" y="1104.37" width="15" height="15" as="geometry" />
        </mxCell>
        <mxCell id="7sT3qUHH8tz0WFLtc2-D-478" value="" style="rounded=0;whiteSpace=wrap;html=1;" vertex="1" parent="1">
          <mxGeometry x="1070" y="1129.37" width="15" height="15" as="geometry" />
        </mxCell>
        <mxCell id="7sT3qUHH8tz0WFLtc2-D-479" value="" style="rounded=0;whiteSpace=wrap;html=1;" vertex="1" parent="1">
          <mxGeometry x="1069.99" y="994.37" width="15" height="15" as="geometry" />
        </mxCell>
        <mxCell id="7sT3qUHH8tz0WFLtc2-D-480" value="" style="rounded=0;whiteSpace=wrap;html=1;" vertex="1" parent="1">
          <mxGeometry x="1069.99" y="1019.37" width="15" height="15" as="geometry" />
        </mxCell>
        <mxCell id="7sT3qUHH8tz0WFLtc2-D-481" value="" style="rounded=0;whiteSpace=wrap;html=1;" vertex="1" parent="1">
          <mxGeometry x="1069.99" y="1049.37" width="15" height="15" as="geometry" />
        </mxCell>
        <mxCell id="7sT3qUHH8tz0WFLtc2-D-482" value="" style="rounded=0;whiteSpace=wrap;html=1;" vertex="1" parent="1">
          <mxGeometry x="1069.99" y="1074.37" width="15" height="15" as="geometry" />
        </mxCell>
        <mxCell id="7sT3qUHH8tz0WFLtc2-D-483" value="" style="rounded=0;whiteSpace=wrap;html=1;" vertex="1" parent="1">
          <mxGeometry x="1069.99" y="969.37" width="15" height="15" as="geometry" />
        </mxCell>
        <mxCell id="7sT3qUHH8tz0WFLtc2-D-484" value="" style="rounded=0;whiteSpace=wrap;html=1;" vertex="1" parent="1">
          <mxGeometry x="1097.5" y="1104.37" width="15" height="15" as="geometry" />
        </mxCell>
        <mxCell id="7sT3qUHH8tz0WFLtc2-D-485" value="" style="rounded=0;whiteSpace=wrap;html=1;" vertex="1" parent="1">
          <mxGeometry x="1097.5" y="1129.37" width="15" height="15" as="geometry" />
        </mxCell>
        <mxCell id="7sT3qUHH8tz0WFLtc2-D-486" value="" style="rounded=0;whiteSpace=wrap;html=1;" vertex="1" parent="1">
          <mxGeometry x="1097.49" y="994.37" width="15" height="15" as="geometry" />
        </mxCell>
        <mxCell id="7sT3qUHH8tz0WFLtc2-D-487" value="" style="rounded=0;whiteSpace=wrap;html=1;" vertex="1" parent="1">
          <mxGeometry x="1097.49" y="1019.37" width="15" height="15" as="geometry" />
        </mxCell>
        <mxCell id="7sT3qUHH8tz0WFLtc2-D-488" value="" style="rounded=0;whiteSpace=wrap;html=1;" vertex="1" parent="1">
          <mxGeometry x="1097.49" y="1049.37" width="15" height="15" as="geometry" />
        </mxCell>
        <mxCell id="7sT3qUHH8tz0WFLtc2-D-489" value="" style="rounded=0;whiteSpace=wrap;html=1;" vertex="1" parent="1">
          <mxGeometry x="1097.49" y="1074.37" width="15" height="15" as="geometry" />
        </mxCell>
        <mxCell id="7sT3qUHH8tz0WFLtc2-D-490" value="" style="rounded=0;whiteSpace=wrap;html=1;" vertex="1" parent="1">
          <mxGeometry x="1097.49" y="969.37" width="15" height="15" as="geometry" />
        </mxCell>
        <mxCell id="7sT3qUHH8tz0WFLtc2-D-491" value="&lt;font style=&quot;font-size: 25px;&quot;&gt;+&lt;/font&gt;" style="text;html=1;align=center;verticalAlign=middle;resizable=0;points=[];autosize=1;strokeColor=none;fillColor=none;fontColor=#FF0000;" vertex="1" parent="1">
          <mxGeometry x="520" y="699.37" width="40" height="40" as="geometry" />
        </mxCell>
        <mxCell id="7sT3qUHH8tz0WFLtc2-D-492" value="&lt;font style=&quot;font-size: 25px;&quot;&gt;+&lt;/font&gt;" style="text;html=1;align=center;verticalAlign=middle;resizable=0;points=[];autosize=1;strokeColor=none;fillColor=none;fontColor=#FF0000;" vertex="1" parent="1">
          <mxGeometry x="520" y="1129.37" width="40" height="40" as="geometry" />
        </mxCell>
        <mxCell id="7sT3qUHH8tz0WFLtc2-D-493" value="&lt;font style=&quot;font-size: 25px;&quot;&gt;+&lt;/font&gt;" style="text;html=1;align=center;verticalAlign=middle;resizable=0;points=[];autosize=1;strokeColor=none;fillColor=none;fontColor=#FF0000;" vertex="1" parent="1">
          <mxGeometry x="1109.99" y="1129.37" width="40" height="40" as="geometry" />
        </mxCell>
        <mxCell id="7sT3qUHH8tz0WFLtc2-D-494" value="&lt;font style=&quot;font-size: 25px;&quot;&gt;+&lt;/font&gt;" style="text;html=1;align=center;verticalAlign=middle;resizable=0;points=[];autosize=1;strokeColor=none;fillColor=none;fontColor=#FF0000;" vertex="1" parent="1">
          <mxGeometry x="1112.5" y="699.37" width="40" height="40" as="geometry" />
        </mxCell>
        <mxCell id="7sT3qUHH8tz0WFLtc2-D-495" value="&lt;font style=&quot;font-size: 26px;&quot; color=&quot;#0000ff&quot;&gt;-&lt;/font&gt;" style="text;html=1;align=center;verticalAlign=middle;resizable=0;points=[];autosize=1;strokeColor=none;fillColor=none;fontColor=#FF0000;fontSize=16;" vertex="1" parent="1">
          <mxGeometry x="525" y="749.37" width="30" height="40" as="geometry" />
        </mxCell>
        <mxCell id="7sT3qUHH8tz0WFLtc2-D-496" value="&lt;font style=&quot;font-size: 26px;&quot; color=&quot;#0000ff&quot;&gt;-&lt;/font&gt;" style="text;html=1;align=center;verticalAlign=middle;resizable=0;points=[];autosize=1;strokeColor=none;fillColor=none;fontColor=#FF0000;fontSize=16;" vertex="1" parent="1">
          <mxGeometry x="525" y="1079.37" width="30" height="40" as="geometry" />
        </mxCell>
        <mxCell id="7sT3qUHH8tz0WFLtc2-D-497" value="&lt;font style=&quot;font-size: 26px;&quot; color=&quot;#0000ff&quot;&gt;-&lt;/font&gt;" style="text;html=1;align=center;verticalAlign=middle;resizable=0;points=[];autosize=1;strokeColor=none;fillColor=none;fontColor=#FF0000;fontSize=16;" vertex="1" parent="1">
          <mxGeometry x="1114.99" y="1079.37" width="30" height="40" as="geometry" />
        </mxCell>
        <mxCell id="7sT3qUHH8tz0WFLtc2-D-498" value="&lt;font style=&quot;font-size: 26px;&quot; color=&quot;#0000ff&quot;&gt;-&lt;/font&gt;" style="text;html=1;align=center;verticalAlign=middle;resizable=0;points=[];autosize=1;strokeColor=none;fillColor=none;fontColor=#FF0000;fontSize=16;" vertex="1" parent="1">
          <mxGeometry x="1117.5" y="749.37" width="30" height="40" as="geometry" />
        </mxCell>
        <mxCell id="7sT3qUHH8tz0WFLtc2-D-159" value="" style="rounded=0;whiteSpace=wrap;html=1;" vertex="1" parent="1">
          <mxGeometry x="847.49" y="896.25" width="80" height="80" as="geometry" />
        </mxCell>
        <mxCell id="7sT3qUHH8tz0WFLtc2-D-161" value="" style="ellipse;whiteSpace=wrap;html=1;aspect=fixed;" vertex="1" parent="1">
          <mxGeometry x="851.24" y="901.25" width="10" height="10" as="geometry" />
        </mxCell>
        <mxCell id="7sT3qUHH8tz0WFLtc2-D-162" value="" style="ellipse;whiteSpace=wrap;html=1;aspect=fixed;" vertex="1" parent="1">
          <mxGeometry x="912.49" y="901.25" width="10" height="10" as="geometry" />
        </mxCell>
        <mxCell id="7sT3qUHH8tz0WFLtc2-D-163" value="" style="ellipse;whiteSpace=wrap;html=1;aspect=fixed;" vertex="1" parent="1">
          <mxGeometry x="851.24" y="961.2500000000001" width="10" height="10" as="geometry" />
        </mxCell>
        <mxCell id="7sT3qUHH8tz0WFLtc2-D-165" value="" style="ellipse;whiteSpace=wrap;html=1;aspect=fixed;" vertex="1" parent="1">
          <mxGeometry x="912.49" y="961.2500000000001" width="10" height="10" as="geometry" />
        </mxCell>
        <mxCell id="7sT3qUHH8tz0WFLtc2-D-160" value="" style="ellipse;whiteSpace=wrap;html=1;aspect=fixed;fillColor=#dae8fc;strokeColor=#6c8ebf;" vertex="1" parent="1">
          <mxGeometry x="846.49" y="894.25" width="82" height="82" as="geometry" />
        </mxCell>
        <mxCell id="7sT3qUHH8tz0WFLtc2-D-166" value="" style="ellipse;whiteSpace=wrap;html=1;aspect=fixed;fillColor=#dae8fc;strokeColor=#6c8ebf;" vertex="1" parent="1">
          <mxGeometry x="852.49" y="899.75" width="71" height="71" as="geometry" />
        </mxCell>
        <mxCell id="7sT3qUHH8tz0WFLtc2-D-169" value="" style="endArrow=none;html=1;rounded=0;strokeWidth=4;" edge="1" parent="1">
          <mxGeometry width="50" height="50" relative="1" as="geometry">
            <mxPoint x="912.49" y="896.25" as="sourcePoint" />
            <mxPoint x="912.99" y="889.37" as="targetPoint" />
            <Array as="points" />
          </mxGeometry>
        </mxCell>
        <mxCell id="7sT3qUHH8tz0WFLtc2-D-172" value="" style="endArrow=none;html=1;rounded=0;strokeWidth=4;" edge="1" parent="1">
          <mxGeometry width="50" height="50" relative="1" as="geometry">
            <mxPoint x="863.74" y="896.25" as="sourcePoint" />
            <mxPoint x="863.99" y="889.37" as="targetPoint" />
            <Array as="points" />
          </mxGeometry>
        </mxCell>
        <mxCell id="7sT3qUHH8tz0WFLtc2-D-173" value="" style="endArrow=none;html=1;rounded=0;strokeWidth=4;exitX=0.5;exitY=1;exitDx=0;exitDy=0;" edge="1" parent="1" source="7sT3qUHH8tz0WFLtc2-D-441">
          <mxGeometry width="50" height="50" relative="1" as="geometry">
            <mxPoint x="912.49" y="986.2500000000001" as="sourcePoint" />
            <mxPoint x="912.49" y="976.2500000000001" as="targetPoint" />
            <Array as="points" />
          </mxGeometry>
        </mxCell>
        <mxCell id="7sT3qUHH8tz0WFLtc2-D-174" value="" style="endArrow=none;html=1;rounded=0;strokeWidth=4;exitX=0.578;exitY=0.948;exitDx=0;exitDy=0;exitPerimeter=0;" edge="1" parent="1" source="7sT3qUHH8tz0WFLtc2-D-427">
          <mxGeometry width="50" height="50" relative="1" as="geometry">
            <mxPoint x="861.24" y="986.2500000000001" as="sourcePoint" />
            <mxPoint x="861.24" y="976.2500000000001" as="targetPoint" />
            <Array as="points" />
          </mxGeometry>
        </mxCell>
        <mxCell id="7sT3qUHH8tz0WFLtc2-D-500" value="" style="endArrow=none;html=1;rounded=0;strokeWidth=7;" edge="1" parent="1">
          <mxGeometry width="50" height="50" relative="1" as="geometry">
            <mxPoint x="210" y="71.97" as="sourcePoint" />
            <mxPoint x="310" y="71.97" as="targetPoint" />
          </mxGeometry>
        </mxCell>
        <mxCell id="7sT3qUHH8tz0WFLtc2-D-502" value="" style="endArrow=none;html=1;rounded=0;strokeWidth=7;" edge="1" parent="1">
          <mxGeometry width="50" height="50" relative="1" as="geometry">
            <mxPoint x="210" y="131.97" as="sourcePoint" />
            <mxPoint x="310" y="131.97" as="targetPoint" />
          </mxGeometry>
        </mxCell>
        <mxCell id="7sT3qUHH8tz0WFLtc2-D-503" value="" style="endArrow=none;html=1;rounded=0;strokeWidth=7;" edge="1" parent="1">
          <mxGeometry width="50" height="50" relative="1" as="geometry">
            <mxPoint x="210" y="190" as="sourcePoint" />
            <mxPoint x="310" y="190" as="targetPoint" />
          </mxGeometry>
        </mxCell>
        <mxCell id="7sT3qUHH8tz0WFLtc2-D-504" value="" style="endArrow=none;html=1;rounded=0;strokeWidth=7;" edge="1" parent="1">
          <mxGeometry width="50" height="50" relative="1" as="geometry">
            <mxPoint x="210" y="245" as="sourcePoint" />
            <mxPoint x="310" y="245" as="targetPoint" />
          </mxGeometry>
        </mxCell>
        <mxCell id="7sT3qUHH8tz0WFLtc2-D-505" value="" style="endArrow=none;html=1;rounded=0;strokeWidth=7;" edge="1" parent="1">
          <mxGeometry width="50" height="50" relative="1" as="geometry">
            <mxPoint x="210" y="305" as="sourcePoint" />
            <mxPoint x="310" y="305" as="targetPoint" />
          </mxGeometry>
        </mxCell>
        <mxCell id="7sT3qUHH8tz0WFLtc2-D-506" value="" style="endArrow=none;html=1;rounded=0;strokeWidth=7;" edge="1" parent="1">
          <mxGeometry width="50" height="50" relative="1" as="geometry">
            <mxPoint x="210" y="363.03" as="sourcePoint" />
            <mxPoint x="310" y="363.03" as="targetPoint" />
          </mxGeometry>
        </mxCell>
        <mxCell id="7sT3qUHH8tz0WFLtc2-D-507" value="" style="endArrow=none;html=1;rounded=0;strokeWidth=7;" edge="1" parent="1">
          <mxGeometry width="50" height="50" relative="1" as="geometry">
            <mxPoint x="210" y="541.73" as="sourcePoint" />
            <mxPoint x="310" y="541.73" as="targetPoint" />
          </mxGeometry>
        </mxCell>
        <mxCell id="7sT3qUHH8tz0WFLtc2-D-508" value="" style="endArrow=none;html=1;rounded=0;strokeWidth=7;" edge="1" parent="1">
          <mxGeometry width="50" height="50" relative="1" as="geometry">
            <mxPoint x="210" y="481.73" as="sourcePoint" />
            <mxPoint x="310" y="481.73" as="targetPoint" />
          </mxGeometry>
        </mxCell>
        <mxCell id="7sT3qUHH8tz0WFLtc2-D-509" value="" style="endArrow=none;html=1;rounded=0;strokeWidth=7;" edge="1" parent="1">
          <mxGeometry width="50" height="50" relative="1" as="geometry">
            <mxPoint x="210" y="422.26" as="sourcePoint" />
            <mxPoint x="310" y="422.26" as="targetPoint" />
          </mxGeometry>
        </mxCell>
        <mxCell id="7sT3qUHH8tz0WFLtc2-D-510" value="" style="endArrow=none;html=1;rounded=0;strokeWidth=7;" edge="1" parent="1">
          <mxGeometry width="50" height="50" relative="1" as="geometry">
            <mxPoint x="210" y="602.72" as="sourcePoint" />
            <mxPoint x="310" y="602.72" as="targetPoint" />
          </mxGeometry>
        </mxCell>
        <mxCell id="7sT3qUHH8tz0WFLtc2-D-511" value="" style="endArrow=none;html=1;rounded=0;strokeWidth=7;" edge="1" parent="1">
          <mxGeometry width="50" height="50" relative="1" as="geometry">
            <mxPoint x="210" y="662.72" as="sourcePoint" />
            <mxPoint x="310" y="662.72" as="targetPoint" />
          </mxGeometry>
        </mxCell>
        <mxCell id="7sT3qUHH8tz0WFLtc2-D-512" value="" style="endArrow=none;html=1;rounded=0;strokeWidth=7;" edge="1" parent="1">
          <mxGeometry width="50" height="50" relative="1" as="geometry">
            <mxPoint x="210" y="720.75" as="sourcePoint" />
            <mxPoint x="310" y="720.75" as="targetPoint" />
          </mxGeometry>
        </mxCell>
        <mxCell id="7sT3qUHH8tz0WFLtc2-D-513" value="" style="endArrow=none;html=1;rounded=0;strokeWidth=7;" edge="1" parent="1">
          <mxGeometry width="50" height="50" relative="1" as="geometry">
            <mxPoint x="210" y="782.26" as="sourcePoint" />
            <mxPoint x="310" y="782.26" as="targetPoint" />
          </mxGeometry>
        </mxCell>
        <mxCell id="7sT3qUHH8tz0WFLtc2-D-514" value="" style="endArrow=none;html=1;rounded=0;strokeWidth=7;" edge="1" parent="1">
          <mxGeometry width="50" height="50" relative="1" as="geometry">
            <mxPoint x="210" y="840.75" as="sourcePoint" />
            <mxPoint x="310" y="840.75" as="targetPoint" />
          </mxGeometry>
        </mxCell>
        <mxCell id="7sT3qUHH8tz0WFLtc2-D-515" value="" style="endArrow=none;html=1;rounded=0;strokeWidth=7;" edge="1" parent="1">
          <mxGeometry width="50" height="50" relative="1" as="geometry">
            <mxPoint x="210" y="901.74" as="sourcePoint" />
            <mxPoint x="310" y="901.74" as="targetPoint" />
          </mxGeometry>
        </mxCell>
        <mxCell id="7sT3qUHH8tz0WFLtc2-D-516" value="" style="endArrow=none;html=1;rounded=0;strokeWidth=7;" edge="1" parent="1">
          <mxGeometry width="50" height="50" relative="1" as="geometry">
            <mxPoint x="210" y="961.74" as="sourcePoint" />
            <mxPoint x="310" y="961.74" as="targetPoint" />
          </mxGeometry>
        </mxCell>
        <mxCell id="7sT3qUHH8tz0WFLtc2-D-517" value="" style="endArrow=none;html=1;rounded=0;strokeWidth=7;" edge="1" parent="1">
          <mxGeometry width="50" height="50" relative="1" as="geometry">
            <mxPoint x="210" y="1022.26" as="sourcePoint" />
            <mxPoint x="310" y="1022.26" as="targetPoint" />
          </mxGeometry>
        </mxCell>
        <mxCell id="7sT3qUHH8tz0WFLtc2-D-518" value="" style="endArrow=none;html=1;rounded=0;strokeWidth=7;" edge="1" parent="1">
          <mxGeometry width="50" height="50" relative="1" as="geometry">
            <mxPoint x="210" y="1083.3899999999999" as="sourcePoint" />
            <mxPoint x="310" y="1083.3899999999999" as="targetPoint" />
          </mxGeometry>
        </mxCell>
        <mxCell id="7sT3qUHH8tz0WFLtc2-D-519" value="" style="endArrow=none;html=1;rounded=0;strokeWidth=7;" edge="1" parent="1">
          <mxGeometry width="50" height="50" relative="1" as="geometry">
            <mxPoint x="210" y="1142.26" as="sourcePoint" />
            <mxPoint x="310" y="1142.26" as="targetPoint" />
          </mxGeometry>
        </mxCell>
        <mxCell id="7sT3qUHH8tz0WFLtc2-D-520" value="" style="endArrow=none;html=1;rounded=0;strokeWidth=7;" edge="1" parent="1">
          <mxGeometry width="50" height="50" relative="1" as="geometry">
            <mxPoint x="210" y="1203.62" as="sourcePoint" />
            <mxPoint x="310" y="1203.62" as="targetPoint" />
          </mxGeometry>
        </mxCell>
        <mxCell id="7sT3qUHH8tz0WFLtc2-D-521" value="" style="endArrow=none;html=1;rounded=0;strokeWidth=7;" edge="1" parent="1">
          <mxGeometry width="50" height="50" relative="1" as="geometry">
            <mxPoint x="10" y="72.36" as="sourcePoint" />
            <mxPoint x="110" y="72.36" as="targetPoint" />
          </mxGeometry>
        </mxCell>
        <mxCell id="7sT3qUHH8tz0WFLtc2-D-522" value="" style="endArrow=none;html=1;rounded=0;strokeWidth=7;" edge="1" parent="1">
          <mxGeometry width="50" height="50" relative="1" as="geometry">
            <mxPoint x="10" y="132.36" as="sourcePoint" />
            <mxPoint x="110" y="132.36" as="targetPoint" />
          </mxGeometry>
        </mxCell>
        <mxCell id="7sT3qUHH8tz0WFLtc2-D-523" value="" style="endArrow=none;html=1;rounded=0;strokeWidth=7;" edge="1" parent="1">
          <mxGeometry width="50" height="50" relative="1" as="geometry">
            <mxPoint x="10" y="186.9" as="sourcePoint" />
            <mxPoint x="110" y="186.9" as="targetPoint" />
          </mxGeometry>
        </mxCell>
        <mxCell id="7sT3qUHH8tz0WFLtc2-D-524" value="" style="endArrow=none;html=1;rounded=0;strokeWidth=7;" edge="1" parent="1">
          <mxGeometry width="50" height="50" relative="1" as="geometry">
            <mxPoint x="10" y="245" as="sourcePoint" />
            <mxPoint x="110" y="245" as="targetPoint" />
          </mxGeometry>
        </mxCell>
        <mxCell id="7sT3qUHH8tz0WFLtc2-D-525" value="" style="endArrow=none;html=1;rounded=0;strokeWidth=7;" edge="1" parent="1">
          <mxGeometry width="50" height="50" relative="1" as="geometry">
            <mxPoint x="10" y="301.9" as="sourcePoint" />
            <mxPoint x="110" y="301.9" as="targetPoint" />
          </mxGeometry>
        </mxCell>
        <mxCell id="7sT3qUHH8tz0WFLtc2-D-526" value="" style="endArrow=none;html=1;rounded=0;strokeWidth=7;" edge="1" parent="1">
          <mxGeometry width="50" height="50" relative="1" as="geometry">
            <mxPoint x="10" y="363.54999999999995" as="sourcePoint" />
            <mxPoint x="110" y="363.54999999999995" as="targetPoint" />
          </mxGeometry>
        </mxCell>
        <mxCell id="7sT3qUHH8tz0WFLtc2-D-527" value="" style="endArrow=none;html=1;rounded=0;strokeWidth=7;" edge="1" parent="1">
          <mxGeometry width="50" height="50" relative="1" as="geometry">
            <mxPoint x="10" y="542.26" as="sourcePoint" />
            <mxPoint x="110" y="542.26" as="targetPoint" />
          </mxGeometry>
        </mxCell>
        <mxCell id="7sT3qUHH8tz0WFLtc2-D-528" value="" style="endArrow=none;html=1;rounded=0;strokeWidth=7;" edge="1" parent="1">
          <mxGeometry width="50" height="50" relative="1" as="geometry">
            <mxPoint x="10" y="482.26" as="sourcePoint" />
            <mxPoint x="110" y="482.26" as="targetPoint" />
          </mxGeometry>
        </mxCell>
        <mxCell id="7sT3qUHH8tz0WFLtc2-D-529" value="" style="endArrow=none;html=1;rounded=0;strokeWidth=7;" edge="1" parent="1">
          <mxGeometry width="50" height="50" relative="1" as="geometry">
            <mxPoint x="10" y="421.9" as="sourcePoint" />
            <mxPoint x="110" y="421.9" as="targetPoint" />
          </mxGeometry>
        </mxCell>
        <mxCell id="7sT3qUHH8tz0WFLtc2-D-530" value="" style="endArrow=none;html=1;rounded=0;strokeWidth=7;" edge="1" parent="1">
          <mxGeometry width="50" height="50" relative="1" as="geometry">
            <mxPoint x="10" y="602.26" as="sourcePoint" />
            <mxPoint x="110" y="602.26" as="targetPoint" />
          </mxGeometry>
        </mxCell>
        <mxCell id="7sT3qUHH8tz0WFLtc2-D-531" value="" style="endArrow=none;html=1;rounded=0;strokeWidth=7;" edge="1" parent="1">
          <mxGeometry width="50" height="50" relative="1" as="geometry">
            <mxPoint x="10" y="662.26" as="sourcePoint" />
            <mxPoint x="110" y="662.26" as="targetPoint" />
          </mxGeometry>
        </mxCell>
        <mxCell id="7sT3qUHH8tz0WFLtc2-D-532" value="" style="endArrow=none;html=1;rounded=0;strokeWidth=7;" edge="1" parent="1">
          <mxGeometry width="50" height="50" relative="1" as="geometry">
            <mxPoint x="10" y="722.26" as="sourcePoint" />
            <mxPoint x="110" y="722.26" as="targetPoint" />
          </mxGeometry>
        </mxCell>
        <mxCell id="7sT3qUHH8tz0WFLtc2-D-533" value="" style="endArrow=none;html=1;rounded=0;strokeWidth=7;" edge="1" parent="1">
          <mxGeometry width="50" height="50" relative="1" as="geometry">
            <mxPoint x="10" y="781.27" as="sourcePoint" />
            <mxPoint x="110" y="781.27" as="targetPoint" />
          </mxGeometry>
        </mxCell>
        <mxCell id="7sT3qUHH8tz0WFLtc2-D-534" value="" style="endArrow=none;html=1;rounded=0;strokeWidth=7;" edge="1" parent="1">
          <mxGeometry width="50" height="50" relative="1" as="geometry">
            <mxPoint x="10" y="841.63" as="sourcePoint" />
            <mxPoint x="110" y="841.63" as="targetPoint" />
          </mxGeometry>
        </mxCell>
        <mxCell id="7sT3qUHH8tz0WFLtc2-D-535" value="" style="endArrow=none;html=1;rounded=0;strokeWidth=7;" edge="1" parent="1">
          <mxGeometry width="50" height="50" relative="1" as="geometry">
            <mxPoint x="10" y="902.26" as="sourcePoint" />
            <mxPoint x="110" y="902.26" as="targetPoint" />
          </mxGeometry>
        </mxCell>
        <mxCell id="7sT3qUHH8tz0WFLtc2-D-536" value="" style="endArrow=none;html=1;rounded=0;strokeWidth=7;" edge="1" parent="1">
          <mxGeometry width="50" height="50" relative="1" as="geometry">
            <mxPoint x="10" y="961.25" as="sourcePoint" />
            <mxPoint x="110" y="961.25" as="targetPoint" />
          </mxGeometry>
        </mxCell>
        <mxCell id="7sT3qUHH8tz0WFLtc2-D-537" value="" style="endArrow=none;html=1;rounded=0;strokeWidth=7;" edge="1" parent="1">
          <mxGeometry width="50" height="50" relative="1" as="geometry">
            <mxPoint x="10" y="1022.26" as="sourcePoint" />
            <mxPoint x="110" y="1022.26" as="targetPoint" />
          </mxGeometry>
        </mxCell>
        <mxCell id="7sT3qUHH8tz0WFLtc2-D-538" value="" style="endArrow=none;html=1;rounded=0;strokeWidth=7;" edge="1" parent="1">
          <mxGeometry width="50" height="50" relative="1" as="geometry">
            <mxPoint x="10" y="1080.2899999999997" as="sourcePoint" />
            <mxPoint x="110" y="1080.2899999999997" as="targetPoint" />
          </mxGeometry>
        </mxCell>
        <mxCell id="7sT3qUHH8tz0WFLtc2-D-539" value="" style="endArrow=none;html=1;rounded=0;strokeWidth=7;" edge="1" parent="1">
          <mxGeometry width="50" height="50" relative="1" as="geometry">
            <mxPoint x="10" y="1142.2599999999998" as="sourcePoint" />
            <mxPoint x="110" y="1142.2599999999998" as="targetPoint" />
          </mxGeometry>
        </mxCell>
        <mxCell id="7sT3qUHH8tz0WFLtc2-D-540" value="" style="endArrow=none;html=1;rounded=0;strokeWidth=7;" edge="1" parent="1">
          <mxGeometry width="50" height="50" relative="1" as="geometry">
            <mxPoint x="10" y="1202.2999999999997" as="sourcePoint" />
            <mxPoint x="110" y="1202.2999999999997" as="targetPoint" />
          </mxGeometry>
        </mxCell>
        <mxCell id="7sT3qUHH8tz0WFLtc2-D-541" value="" style="ellipse;whiteSpace=wrap;html=1;aspect=fixed;strokeWidth=5;" vertex="1" parent="1">
          <mxGeometry x="310" y="62.5" width="20" height="20" as="geometry" />
        </mxCell>
        <mxCell id="7sT3qUHH8tz0WFLtc2-D-542" value="" style="ellipse;whiteSpace=wrap;html=1;aspect=fixed;strokeWidth=5;" vertex="1" parent="1">
          <mxGeometry x="310" y="122.5" width="20" height="20" as="geometry" />
        </mxCell>
        <mxCell id="7sT3qUHH8tz0WFLtc2-D-543" value="" style="ellipse;whiteSpace=wrap;html=1;aspect=fixed;strokeWidth=5;" vertex="1" parent="1">
          <mxGeometry x="310" y="177.5" width="20" height="20" as="geometry" />
        </mxCell>
        <mxCell id="7sT3qUHH8tz0WFLtc2-D-544" value="" style="ellipse;whiteSpace=wrap;html=1;aspect=fixed;strokeWidth=5;" vertex="1" parent="1">
          <mxGeometry x="310" y="235" width="20" height="20" as="geometry" />
        </mxCell>
        <mxCell id="7sT3qUHH8tz0WFLtc2-D-545" value="" style="ellipse;whiteSpace=wrap;html=1;aspect=fixed;strokeWidth=5;" vertex="1" parent="1">
          <mxGeometry x="310" y="293.75" width="20" height="20" as="geometry" />
        </mxCell>
        <mxCell id="7sT3qUHH8tz0WFLtc2-D-546" value="" style="ellipse;whiteSpace=wrap;html=1;aspect=fixed;strokeWidth=5;" vertex="1" parent="1">
          <mxGeometry x="310" y="353.75" width="20" height="20" as="geometry" />
        </mxCell>
        <mxCell id="7sT3qUHH8tz0WFLtc2-D-547" value="" style="ellipse;whiteSpace=wrap;html=1;aspect=fixed;strokeWidth=5;" vertex="1" parent="1">
          <mxGeometry x="310" y="412.5" width="20" height="20" as="geometry" />
        </mxCell>
        <mxCell id="7sT3qUHH8tz0WFLtc2-D-548" value="" style="ellipse;whiteSpace=wrap;html=1;aspect=fixed;strokeWidth=5;" vertex="1" parent="1">
          <mxGeometry x="310" y="472.5" width="20" height="20" as="geometry" />
        </mxCell>
        <mxCell id="7sT3qUHH8tz0WFLtc2-D-550" value="" style="ellipse;whiteSpace=wrap;html=1;aspect=fixed;strokeWidth=5;" vertex="1" parent="1">
          <mxGeometry x="310" y="531.25" width="20" height="20" as="geometry" />
        </mxCell>
        <mxCell id="7sT3qUHH8tz0WFLtc2-D-551" value="" style="ellipse;whiteSpace=wrap;html=1;aspect=fixed;strokeWidth=5;" vertex="1" parent="1">
          <mxGeometry x="310" y="591.25" width="20" height="20" as="geometry" />
        </mxCell>
        <mxCell id="7sT3qUHH8tz0WFLtc2-D-552" value="" style="ellipse;whiteSpace=wrap;html=1;aspect=fixed;strokeWidth=5;" vertex="1" parent="1">
          <mxGeometry x="310" y="652.5" width="20" height="20" as="geometry" />
        </mxCell>
        <mxCell id="7sT3qUHH8tz0WFLtc2-D-553" value="" style="ellipse;whiteSpace=wrap;html=1;aspect=fixed;strokeWidth=5;" vertex="1" parent="1">
          <mxGeometry x="310" y="712.5" width="20" height="20" as="geometry" />
        </mxCell>
        <mxCell id="7sT3qUHH8tz0WFLtc2-D-554" value="" style="ellipse;whiteSpace=wrap;html=1;aspect=fixed;strokeWidth=5;" vertex="1" parent="1">
          <mxGeometry x="310" y="772.5" width="20" height="20" as="geometry" />
        </mxCell>
        <mxCell id="7sT3qUHH8tz0WFLtc2-D-555" value="" style="ellipse;whiteSpace=wrap;html=1;aspect=fixed;strokeWidth=5;" vertex="1" parent="1">
          <mxGeometry x="310" y="831.87" width="20" height="20" as="geometry" />
        </mxCell>
        <mxCell id="7sT3qUHH8tz0WFLtc2-D-556" value="" style="ellipse;whiteSpace=wrap;html=1;aspect=fixed;strokeWidth=5;" vertex="1" parent="1">
          <mxGeometry x="310" y="891.25" width="20" height="20" as="geometry" />
        </mxCell>
        <mxCell id="7sT3qUHH8tz0WFLtc2-D-557" value="" style="ellipse;whiteSpace=wrap;html=1;aspect=fixed;strokeWidth=5;" vertex="1" parent="1">
          <mxGeometry x="310" y="950.75" width="20" height="20" as="geometry" />
        </mxCell>
        <mxCell id="7sT3qUHH8tz0WFLtc2-D-558" value="" style="ellipse;whiteSpace=wrap;html=1;aspect=fixed;strokeWidth=5;" vertex="1" parent="1">
          <mxGeometry x="310" y="1012.5" width="20" height="20" as="geometry" />
        </mxCell>
        <mxCell id="7sT3qUHH8tz0WFLtc2-D-559" value="" style="ellipse;whiteSpace=wrap;html=1;aspect=fixed;strokeWidth=5;" vertex="1" parent="1">
          <mxGeometry x="310" y="1074.37" width="20" height="20" as="geometry" />
        </mxCell>
        <mxCell id="7sT3qUHH8tz0WFLtc2-D-560" value="" style="ellipse;whiteSpace=wrap;html=1;aspect=fixed;strokeWidth=5;" vertex="1" parent="1">
          <mxGeometry x="310" y="1132.5" width="20" height="20" as="geometry" />
        </mxCell>
        <mxCell id="7sT3qUHH8tz0WFLtc2-D-561" value="" style="ellipse;whiteSpace=wrap;html=1;aspect=fixed;strokeWidth=5;" vertex="1" parent="1">
          <mxGeometry x="310" y="1192.5" width="20" height="20" as="geometry" />
        </mxCell>
        <mxCell id="7sT3qUHH8tz0WFLtc2-D-566" value="" style="ellipse;whiteSpace=wrap;html=1;aspect=fixed;strokeWidth=5;" vertex="1" parent="1">
          <mxGeometry y="62.5" width="20" height="20" as="geometry" />
        </mxCell>
        <mxCell id="7sT3qUHH8tz0WFLtc2-D-567" value="" style="ellipse;whiteSpace=wrap;html=1;aspect=fixed;strokeWidth=5;" vertex="1" parent="1">
          <mxGeometry y="122.5" width="20" height="20" as="geometry" />
        </mxCell>
        <mxCell id="7sT3qUHH8tz0WFLtc2-D-568" value="" style="ellipse;whiteSpace=wrap;html=1;aspect=fixed;strokeWidth=5;" vertex="1" parent="1">
          <mxGeometry y="177.5" width="20" height="20" as="geometry" />
        </mxCell>
        <mxCell id="7sT3qUHH8tz0WFLtc2-D-569" value="" style="ellipse;whiteSpace=wrap;html=1;aspect=fixed;strokeWidth=5;" vertex="1" parent="1">
          <mxGeometry y="235" width="20" height="20" as="geometry" />
        </mxCell>
        <mxCell id="7sT3qUHH8tz0WFLtc2-D-570" value="" style="ellipse;whiteSpace=wrap;html=1;aspect=fixed;strokeWidth=5;" vertex="1" parent="1">
          <mxGeometry y="293.75" width="20" height="20" as="geometry" />
        </mxCell>
        <mxCell id="7sT3qUHH8tz0WFLtc2-D-571" value="" style="ellipse;whiteSpace=wrap;html=1;aspect=fixed;strokeWidth=5;" vertex="1" parent="1">
          <mxGeometry y="353.75" width="20" height="20" as="geometry" />
        </mxCell>
        <mxCell id="7sT3qUHH8tz0WFLtc2-D-572" value="" style="ellipse;whiteSpace=wrap;html=1;aspect=fixed;strokeWidth=5;" vertex="1" parent="1">
          <mxGeometry y="412.5" width="20" height="20" as="geometry" />
        </mxCell>
        <mxCell id="7sT3qUHH8tz0WFLtc2-D-573" value="" style="ellipse;whiteSpace=wrap;html=1;aspect=fixed;strokeWidth=5;" vertex="1" parent="1">
          <mxGeometry y="472.5" width="20" height="20" as="geometry" />
        </mxCell>
        <mxCell id="7sT3qUHH8tz0WFLtc2-D-574" value="" style="ellipse;whiteSpace=wrap;html=1;aspect=fixed;strokeWidth=5;" vertex="1" parent="1">
          <mxGeometry y="531.25" width="20" height="20" as="geometry" />
        </mxCell>
        <mxCell id="7sT3qUHH8tz0WFLtc2-D-575" value="" style="ellipse;whiteSpace=wrap;html=1;aspect=fixed;strokeWidth=5;" vertex="1" parent="1">
          <mxGeometry y="591.25" width="20" height="20" as="geometry" />
        </mxCell>
        <mxCell id="7sT3qUHH8tz0WFLtc2-D-576" value="" style="ellipse;whiteSpace=wrap;html=1;aspect=fixed;strokeWidth=5;" vertex="1" parent="1">
          <mxGeometry y="652.5" width="20" height="20" as="geometry" />
        </mxCell>
        <mxCell id="7sT3qUHH8tz0WFLtc2-D-577" value="" style="ellipse;whiteSpace=wrap;html=1;aspect=fixed;strokeWidth=5;" vertex="1" parent="1">
          <mxGeometry y="712.5" width="20" height="20" as="geometry" />
        </mxCell>
        <mxCell id="7sT3qUHH8tz0WFLtc2-D-578" value="" style="ellipse;whiteSpace=wrap;html=1;aspect=fixed;strokeWidth=5;" vertex="1" parent="1">
          <mxGeometry y="772.5" width="20" height="20" as="geometry" />
        </mxCell>
        <mxCell id="7sT3qUHH8tz0WFLtc2-D-579" value="" style="ellipse;whiteSpace=wrap;html=1;aspect=fixed;strokeWidth=5;" vertex="1" parent="1">
          <mxGeometry y="831.87" width="20" height="20" as="geometry" />
        </mxCell>
        <mxCell id="7sT3qUHH8tz0WFLtc2-D-580" value="" style="ellipse;whiteSpace=wrap;html=1;aspect=fixed;strokeWidth=5;" vertex="1" parent="1">
          <mxGeometry y="891.25" width="20" height="20" as="geometry" />
        </mxCell>
        <mxCell id="7sT3qUHH8tz0WFLtc2-D-581" value="" style="ellipse;whiteSpace=wrap;html=1;aspect=fixed;strokeWidth=5;" vertex="1" parent="1">
          <mxGeometry y="950.75" width="20" height="20" as="geometry" />
        </mxCell>
        <mxCell id="7sT3qUHH8tz0WFLtc2-D-582" value="" style="ellipse;whiteSpace=wrap;html=1;aspect=fixed;strokeWidth=5;" vertex="1" parent="1">
          <mxGeometry y="1012.5" width="20" height="20" as="geometry" />
        </mxCell>
        <mxCell id="7sT3qUHH8tz0WFLtc2-D-583" value="" style="ellipse;whiteSpace=wrap;html=1;aspect=fixed;strokeWidth=5;" vertex="1" parent="1">
          <mxGeometry y="1074.37" width="20" height="20" as="geometry" />
        </mxCell>
        <mxCell id="7sT3qUHH8tz0WFLtc2-D-584" value="" style="ellipse;whiteSpace=wrap;html=1;aspect=fixed;strokeWidth=5;" vertex="1" parent="1">
          <mxGeometry y="1132.5" width="20" height="20" as="geometry" />
        </mxCell>
        <mxCell id="7sT3qUHH8tz0WFLtc2-D-585" value="" style="ellipse;whiteSpace=wrap;html=1;aspect=fixed;strokeWidth=5;" vertex="1" parent="1">
          <mxGeometry y="1192.5" width="20" height="20" as="geometry" />
        </mxCell>
        <mxCell id="7sT3qUHH8tz0WFLtc2-D-589" value="&lt;font style=&quot;font-size: 36px;&quot;&gt;&lt;b&gt;5V&lt;/b&gt;&lt;/font&gt;" style="text;html=1;align=center;verticalAlign=middle;resizable=0;points=[];autosize=1;strokeColor=none;fillColor=none;" vertex="1" parent="1">
          <mxGeometry x="240" y="20" width="70" height="60" as="geometry" />
        </mxCell>
        <mxCell id="7sT3qUHH8tz0WFLtc2-D-590" value="&lt;font style=&quot;font-size: 36px;&quot;&gt;&lt;b&gt;5V&lt;/b&gt;&lt;/font&gt;" style="text;html=1;align=center;verticalAlign=middle;resizable=0;points=[];autosize=1;strokeColor=none;fillColor=none;" vertex="1" parent="1">
          <mxGeometry x="240" y="80" width="70" height="60" as="geometry" />
        </mxCell>
        <mxCell id="7sT3qUHH8tz0WFLtc2-D-591" value="&lt;font style=&quot;font-size: 36px;&quot;&gt;&lt;b&gt;GND&lt;/b&gt;&lt;/font&gt;" style="text;html=1;align=center;verticalAlign=middle;resizable=0;points=[];autosize=1;strokeColor=none;fillColor=none;" vertex="1" parent="1">
          <mxGeometry x="225" y="137.5" width="100" height="60" as="geometry" />
        </mxCell>
        <mxCell id="7sT3qUHH8tz0WFLtc2-D-594" value="" style="endArrow=none;html=1;rounded=0;strokeWidth=5;strokeColor=#FF0000;" edge="1" parent="1">
          <mxGeometry width="50" height="50" relative="1" as="geometry">
            <mxPoint x="330" y="131.33999999999997" as="sourcePoint" />
            <mxPoint x="480" y="131.37" as="targetPoint" />
          </mxGeometry>
        </mxCell>
        <mxCell id="7sT3qUHH8tz0WFLtc2-D-595" value="" style="endArrow=none;html=1;rounded=0;strokeWidth=5;strokeColor=#FF0000;" edge="1" parent="1">
          <mxGeometry width="50" height="50" relative="1" as="geometry">
            <mxPoint x="480" y="130" as="sourcePoint" />
            <mxPoint x="480" y="739.37" as="targetPoint" />
          </mxGeometry>
        </mxCell>
        <mxCell id="7sT3qUHH8tz0WFLtc2-D-596" value="" style="endArrow=none;html=1;rounded=0;strokeWidth=5;strokeColor=#FF0000;" edge="1" parent="1">
          <mxGeometry width="50" height="50" relative="1" as="geometry">
            <mxPoint x="480" y="736.72" as="sourcePoint" />
            <mxPoint x="560" y="737" as="targetPoint" />
          </mxGeometry>
        </mxCell>
        <mxCell id="7sT3qUHH8tz0WFLtc2-D-597" value="" style="endArrow=none;html=1;rounded=0;strokeWidth=5;exitX=1;exitY=0.5;exitDx=0;exitDy=0;strokeColor=#0000ff;" edge="1" parent="1">
          <mxGeometry width="50" height="50" relative="1" as="geometry">
            <mxPoint x="329.9999999999743" y="188.06" as="sourcePoint" />
            <mxPoint x="440" y="190" as="targetPoint" />
          </mxGeometry>
        </mxCell>
        <mxCell id="7sT3qUHH8tz0WFLtc2-D-598" value="" style="endArrow=none;html=1;rounded=0;strokeWidth=5;strokeColor=#0000ff;" edge="1" parent="1">
          <mxGeometry width="50" height="50" relative="1" as="geometry">
            <mxPoint x="440" y="190" as="sourcePoint" />
            <mxPoint x="440" y="760" as="targetPoint" />
          </mxGeometry>
        </mxCell>
        <mxCell id="7sT3qUHH8tz0WFLtc2-D-599" value="" style="endArrow=none;html=1;rounded=0;entryX=0;entryY=0.5;entryDx=0;entryDy=0;strokeWidth=5;strokeColor=#0000ff;" edge="1" parent="1" target="7sT3qUHH8tz0WFLtc2-D-194">
          <mxGeometry width="50" height="50" relative="1" as="geometry">
            <mxPoint x="440" y="757" as="sourcePoint" />
            <mxPoint x="490" y="700" as="targetPoint" />
          </mxGeometry>
        </mxCell>
        <mxCell id="7sT3qUHH8tz0WFLtc2-D-600" value="" style="ellipse;whiteSpace=wrap;html=1;aspect=fixed;fillColor=#FF0000;strokeColor=#FF0000;" vertex="1" parent="1">
          <mxGeometry x="562.5" y="731.87" width="10" height="10" as="geometry" />
        </mxCell>
        <mxCell id="7sT3qUHH8tz0WFLtc2-D-601" value="" style="ellipse;whiteSpace=wrap;html=1;aspect=fixed;fillColor=#0000ff;strokeColor=#0000ff;" vertex="1" parent="1">
          <mxGeometry x="562.49" y="751.87" width="10" height="10" as="geometry" />
        </mxCell>
        <mxCell id="7sT3qUHH8tz0WFLtc2-D-603" value="" style="ellipse;whiteSpace=wrap;html=1;aspect=fixed;fillColor=#FF0000;strokeColor=#FF0000;" vertex="1" parent="1">
          <mxGeometry x="802.5" y="731.87" width="10" height="10" as="geometry" />
        </mxCell>
        <mxCell id="7sT3qUHH8tz0WFLtc2-D-604" value="" style="ellipse;whiteSpace=wrap;html=1;aspect=fixed;fillColor=#0000ff;strokeColor=#0000ff;" vertex="1" parent="1">
          <mxGeometry x="855" y="751.87" width="10" height="10" as="geometry" />
        </mxCell>
        <mxCell id="7sT3qUHH8tz0WFLtc2-D-605" value="" style="endArrow=none;html=1;rounded=0;strokeWidth=5;strokeColor=#FF0000;" edge="1" parent="1">
          <mxGeometry width="50" height="50" relative="1" as="geometry">
            <mxPoint x="810" y="360" as="sourcePoint" />
            <mxPoint x="807.42" y="738.12" as="targetPoint" />
          </mxGeometry>
        </mxCell>
        <mxCell id="7sT3qUHH8tz0WFLtc2-D-606" value="" style="endArrow=none;html=1;rounded=0;strokeWidth=5;strokeColor=#0000FF;entryX=0.577;entryY=0.219;entryDx=0;entryDy=0;entryPerimeter=0;" edge="1" parent="1" target="7sT3qUHH8tz0WFLtc2-D-604">
          <mxGeometry width="50" height="50" relative="1" as="geometry">
            <mxPoint x="860.07" y="361.25" as="sourcePoint" />
            <mxPoint x="857.49" y="739.37" as="targetPoint" />
          </mxGeometry>
        </mxCell>
        <mxCell id="7sT3qUHH8tz0WFLtc2-D-607" value="" style="endArrow=none;html=1;rounded=0;strokeWidth=5;strokeColor=#FFFF00;entryX=0.029;entryY=0.416;entryDx=0;entryDy=0;entryPerimeter=0;" edge="1" parent="1" target="7sT3qUHH8tz0WFLtc2-D-569">
          <mxGeometry width="50" height="50" relative="1" as="geometry">
            <mxPoint x="-80" y="245" as="sourcePoint" />
            <mxPoint y="246.42000000000002" as="targetPoint" />
          </mxGeometry>
        </mxCell>
        <mxCell id="7sT3qUHH8tz0WFLtc2-D-608" value="" style="endArrow=none;html=1;rounded=0;strokeWidth=5;strokeColor=#FFFF00;" edge="1" parent="1">
          <mxGeometry width="50" height="50" relative="1" as="geometry">
            <mxPoint x="-80" y="-20" as="sourcePoint" />
            <mxPoint x="-80" y="247.50000000000003" as="targetPoint" />
          </mxGeometry>
        </mxCell>
        <mxCell id="7sT3qUHH8tz0WFLtc2-D-609" value="" style="endArrow=none;html=1;rounded=0;strokeWidth=5;strokeColor=#FFFF00;" edge="1" parent="1">
          <mxGeometry width="50" height="50" relative="1" as="geometry">
            <mxPoint x="-81" y="-18" as="sourcePoint" />
            <mxPoint x="560.8333333333334" y="-20" as="targetPoint" />
          </mxGeometry>
        </mxCell>
        <mxCell id="7sT3qUHH8tz0WFLtc2-D-610" value="" style="endArrow=none;html=1;rounded=0;strokeWidth=5;strokeColor=#FFFF00;" edge="1" parent="1">
          <mxGeometry width="50" height="50" relative="1" as="geometry">
            <mxPoint x="559.17" y="-20" as="sourcePoint" />
            <mxPoint x="560" y="430" as="targetPoint" />
          </mxGeometry>
        </mxCell>
        <mxCell id="7sT3qUHH8tz0WFLtc2-D-611" value="" style="endArrow=none;html=1;rounded=0;strokeWidth=5;strokeColor=#FFFF00;" edge="1" parent="1">
          <mxGeometry width="50" height="50" relative="1" as="geometry">
            <mxPoint x="559.99" y="427" as="sourcePoint" />
            <mxPoint x="840" y="430" as="targetPoint" />
          </mxGeometry>
        </mxCell>
        <mxCell id="7sT3qUHH8tz0WFLtc2-D-612" value="" style="endArrow=none;html=1;rounded=0;strokeWidth=6;strokeColor=#FFFF00;" edge="1" parent="1">
          <mxGeometry width="50" height="50" relative="1" as="geometry">
            <mxPoint x="836.17" y="362.5" as="sourcePoint" />
            <mxPoint x="836.29" y="432.5" as="targetPoint" />
          </mxGeometry>
        </mxCell>
        <mxCell id="7sT3qUHH8tz0WFLtc2-D-613" value="&lt;font style=&quot;font-size: 28px;&quot;&gt;&lt;b style=&quot;&quot;&gt;GPIO4&lt;/b&gt;&lt;/font&gt;" style="text;html=1;align=center;verticalAlign=middle;resizable=0;points=[];autosize=1;strokeColor=none;fillColor=none;" vertex="1" parent="1">
          <mxGeometry y="197.5" width="110" height="50" as="geometry" />
        </mxCell>
        <mxCell id="7sT3qUHH8tz0WFLtc2-D-614" value="&lt;font style=&quot;font-size: 28px;&quot;&gt;&lt;b style=&quot;&quot;&gt;GPIO26&lt;/b&gt;&lt;/font&gt;" style="text;html=1;align=center;verticalAlign=middle;resizable=0;points=[];autosize=1;strokeColor=none;fillColor=none;" vertex="1" parent="1">
          <mxGeometry x="-15" y="1094.37" width="120" height="50" as="geometry" />
        </mxCell>
        <mxCell id="7sT3qUHH8tz0WFLtc2-D-615" value="" style="endArrow=none;html=1;rounded=0;strokeWidth=7;" edge="1" parent="1">
          <mxGeometry width="50" height="50" relative="1" as="geometry">
            <mxPoint x="-50" y="1142" as="sourcePoint" />
            <mxPoint y="1142.1599999999996" as="targetPoint" />
          </mxGeometry>
        </mxCell>
        <mxCell id="7sT3qUHH8tz0WFLtc2-D-616" value="" style="endArrow=none;html=1;rounded=0;strokeWidth=7;" edge="1" parent="1">
          <mxGeometry width="50" height="50" relative="1" as="geometry">
            <mxPoint x="-50" y="1280" as="sourcePoint" />
            <mxPoint x="-50" y="1142.3199999999997" as="targetPoint" />
          </mxGeometry>
        </mxCell>
        <mxCell id="7sT3qUHH8tz0WFLtc2-D-617" value="" style="endArrow=none;html=1;rounded=0;strokeWidth=7;" edge="1" parent="1">
          <mxGeometry width="50" height="50" relative="1" as="geometry">
            <mxPoint x="860" y="1280" as="sourcePoint" />
            <mxPoint x="-50" y="1274.9999999999998" as="targetPoint" />
          </mxGeometry>
        </mxCell>
        <mxCell id="7sT3qUHH8tz0WFLtc2-D-620" value="" style="endArrow=none;html=1;rounded=0;strokeWidth=7;" edge="1" parent="1" target="7sT3qUHH8tz0WFLtc2-D-621">
          <mxGeometry width="50" height="50" relative="1" as="geometry">
            <mxPoint x="860" y="1280" as="sourcePoint" />
            <mxPoint x="860" y="1090" as="targetPoint" />
          </mxGeometry>
        </mxCell>
        <mxCell id="7sT3qUHH8tz0WFLtc2-D-621" value="" style="ellipse;whiteSpace=wrap;html=1;aspect=fixed;fillColor=#000000;strokeColor=#000000;" vertex="1" parent="1">
          <mxGeometry x="854.99" y="1076.87" width="10" height="10" as="geometry" />
        </mxCell>
        <mxCell id="7sT3qUHH8tz0WFLtc2-D-624" value="" style="ellipse;whiteSpace=wrap;html=1;aspect=fixed;strokeColor=#63ACFF;strokeWidth=3;fillColor=#63ACFF;" vertex="1" parent="1">
          <mxGeometry x="943.75" y="822.49" width="37.5" height="37.5" as="geometry" />
        </mxCell>
        <mxCell id="7sT3qUHH8tz0WFLtc2-D-625" value="" style="ellipse;whiteSpace=wrap;html=1;aspect=fixed;strokeColor=#63ACFF;strokeWidth=3;fillColor=#63ACFF;" vertex="1" parent="1">
          <mxGeometry x="1025.01" y="823.74" width="37.5" height="37.5" as="geometry" />
        </mxCell>
        <mxCell id="7sT3qUHH8tz0WFLtc2-D-623" value="" style="ellipse;whiteSpace=wrap;html=1;strokeColor=#63ACFF;strokeWidth=3;fillColor=#63ACFF;" vertex="1" parent="1">
          <mxGeometry x="952.51" y="823.74" width="102.5" height="35" as="geometry" />
        </mxCell>
        <mxCell id="7sT3qUHH8tz0WFLtc2-D-626" value="" style="endArrow=none;html=1;rounded=1;strokeColor=#A88B7C;strokeWidth=3;exitX=0.264;exitY=0.966;exitDx=0;exitDy=0;exitPerimeter=0;entryX=0.272;entryY=0.055;entryDx=0;entryDy=0;entryPerimeter=0;curved=0;" edge="1" parent="1" source="7sT3qUHH8tz0WFLtc2-D-623" target="7sT3qUHH8tz0WFLtc2-D-623">
          <mxGeometry width="50" height="50" relative="1" as="geometry">
            <mxPoint x="978.77" y="855.62" as="sourcePoint" />
            <mxPoint x="978.76" y="826.87" as="targetPoint" />
          </mxGeometry>
        </mxCell>
        <mxCell id="7sT3qUHH8tz0WFLtc2-D-627" value="" style="endArrow=none;html=1;rounded=0;exitX=0.408;exitY=1.024;exitDx=0;exitDy=0;exitPerimeter=0;strokeColor=#000000;strokeWidth=3;" edge="1" parent="1" source="7sT3qUHH8tz0WFLtc2-D-623">
          <mxGeometry width="50" height="50" relative="1" as="geometry">
            <mxPoint x="993.77" y="852.49" as="sourcePoint" />
            <mxPoint x="994.01" y="823.74" as="targetPoint" />
          </mxGeometry>
        </mxCell>
        <mxCell id="7sT3qUHH8tz0WFLtc2-D-628" value="" style="endArrow=none;html=1;rounded=0;exitX=0.601;exitY=1.034;exitDx=0;exitDy=0;exitPerimeter=0;strokeColor=#FF0000;strokeWidth=3;entryX=0.594;entryY=-0.027;entryDx=0;entryDy=0;entryPerimeter=0;" edge="1" parent="1" source="7sT3qUHH8tz0WFLtc2-D-623" target="7sT3qUHH8tz0WFLtc2-D-623">
          <mxGeometry width="50" height="50" relative="1" as="geometry">
            <mxPoint x="1012.62" y="857.74" as="sourcePoint" />
            <mxPoint x="1012.37" y="824.74" as="targetPoint" />
          </mxGeometry>
        </mxCell>
        <mxCell id="7sT3qUHH8tz0WFLtc2-D-629" value="" style="endArrow=none;html=1;rounded=0;strokeColor=#FFFF00;strokeWidth=3;entryX=0.748;entryY=0.052;entryDx=0;entryDy=0;entryPerimeter=0;exitX=0.753;exitY=0.946;exitDx=0;exitDy=0;exitPerimeter=0;" edge="1" parent="1" source="7sT3qUHH8tz0WFLtc2-D-623" target="7sT3qUHH8tz0WFLtc2-D-623">
          <mxGeometry width="50" height="50" relative="1" as="geometry">
            <mxPoint x="1032.4" y="855.61" as="sourcePoint" />
            <mxPoint x="1032.3899999999999" y="826.86" as="targetPoint" />
          </mxGeometry>
        </mxCell>
        <mxCell id="7sT3qUHH8tz0WFLtc2-D-630" value="" style="endArrow=none;html=1;rounded=0;strokeWidth=4;strokeColor=#FF3D3D;" edge="1" parent="1" source="7sT3qUHH8tz0WFLtc2-D-639">
          <mxGeometry width="50" height="50" relative="1" as="geometry">
            <mxPoint x="912.49" y="841.87" as="sourcePoint" />
            <mxPoint x="943.75" y="840.62" as="targetPoint" />
          </mxGeometry>
        </mxCell>
        <mxCell id="7sT3qUHH8tz0WFLtc2-D-631" value="" style="endArrow=none;html=1;rounded=0;strokeWidth=4;entryX=0.305;entryY=0.515;entryDx=0;entryDy=0;entryPerimeter=0;strokeColor=#FF0303;" edge="1" parent="1" target="7sT3qUHH8tz0WFLtc2-D-637">
          <mxGeometry width="50" height="50" relative="1" as="geometry">
            <mxPoint x="1062.5" y="841.86" as="sourcePoint" />
            <mxPoint x="1093.76" y="840.61" as="targetPoint" />
          </mxGeometry>
        </mxCell>
        <mxCell id="7sT3qUHH8tz0WFLtc2-D-632" value="" style="endArrow=none;html=1;rounded=0;strokeWidth=5;strokeColor=#FF0000;" edge="1" parent="1" source="7sT3qUHH8tz0WFLtc2-D-635">
          <mxGeometry width="50" height="50" relative="1" as="geometry">
            <mxPoint x="1104" y="740" as="sourcePoint" />
            <mxPoint x="1103.6999999999998" y="792.5" as="targetPoint" />
          </mxGeometry>
        </mxCell>
        <mxCell id="7sT3qUHH8tz0WFLtc2-D-634" value="" style="endArrow=none;html=1;rounded=0;strokeWidth=5;strokeColor=#FF0000;" edge="1" parent="1" target="7sT3qUHH8tz0WFLtc2-D-633">
          <mxGeometry width="50" height="50" relative="1" as="geometry">
            <mxPoint x="1104" y="740" as="sourcePoint" />
            <mxPoint x="1103.6999999999998" y="792.5" as="targetPoint" />
          </mxGeometry>
        </mxCell>
        <mxCell id="7sT3qUHH8tz0WFLtc2-D-633" value="" style="ellipse;whiteSpace=wrap;html=1;aspect=fixed;fillColor=#FF0000;strokeColor=#FF0000;" vertex="1" parent="1">
          <mxGeometry x="1099.99" y="731.87" width="10" height="10" as="geometry" />
        </mxCell>
        <mxCell id="7sT3qUHH8tz0WFLtc2-D-636" value="" style="endArrow=none;html=1;rounded=0;strokeWidth=5;strokeColor=#FF0000;" edge="1" parent="1" source="7sT3qUHH8tz0WFLtc2-D-633" target="7sT3qUHH8tz0WFLtc2-D-635">
          <mxGeometry width="50" height="50" relative="1" as="geometry">
            <mxPoint x="1105" y="742" as="sourcePoint" />
            <mxPoint x="1103.6999999999998" y="792.5" as="targetPoint" />
          </mxGeometry>
        </mxCell>
        <mxCell id="7sT3qUHH8tz0WFLtc2-D-635" value="" style="ellipse;whiteSpace=wrap;html=1;aspect=fixed;fillColor=#FF0000;strokeColor=#FF0000;" vertex="1" parent="1">
          <mxGeometry x="1100" y="786.87" width="10" height="10" as="geometry" />
        </mxCell>
        <mxCell id="7sT3qUHH8tz0WFLtc2-D-637" value="" style="ellipse;whiteSpace=wrap;html=1;aspect=fixed;fillColor=#FF0000;strokeColor=#FF0000;" vertex="1" parent="1">
          <mxGeometry x="1099.99" y="836.87" width="10" height="10" as="geometry" />
        </mxCell>
        <mxCell id="7sT3qUHH8tz0WFLtc2-D-640" value="" style="endArrow=none;html=1;rounded=0;strokeWidth=4;" edge="1" parent="1" target="7sT3qUHH8tz0WFLtc2-D-639">
          <mxGeometry width="50" height="50" relative="1" as="geometry">
            <mxPoint x="912.49" y="841.87" as="sourcePoint" />
            <mxPoint x="943.75" y="840.62" as="targetPoint" />
          </mxGeometry>
        </mxCell>
        <mxCell id="7sT3qUHH8tz0WFLtc2-D-639" value="" style="ellipse;whiteSpace=wrap;html=1;aspect=fixed;fillColor=#FF0000;strokeColor=#FF0000;" vertex="1" parent="1">
          <mxGeometry x="908.75" y="836.24" width="10" height="10" as="geometry" />
        </mxCell>
        <mxCell id="7sT3qUHH8tz0WFLtc2-D-641" value="" style="endArrow=none;html=1;rounded=0;strokeWidth=4;strokeColor=#FF3D3D;entryX=0.5;entryY=0;entryDx=0;entryDy=0;" edge="1" parent="1" target="7sT3qUHH8tz0WFLtc2-D-298">
          <mxGeometry width="50" height="50" relative="1" as="geometry">
            <mxPoint x="912.49" y="841.43" as="sourcePoint" />
            <mxPoint x="937.24" y="841.05" as="targetPoint" />
          </mxGeometry>
        </mxCell>
        <mxCell id="7sT3qUHH8tz0WFLtc2-D-643" value="&lt;b&gt;&lt;font style=&quot;font-size: 23px;&quot;&gt;DHT11&lt;/font&gt;&lt;/b&gt;" style="text;html=1;align=center;verticalAlign=middle;resizable=0;points=[];autosize=1;strokeColor=none;fillColor=none;" vertex="1" parent="1">
          <mxGeometry x="784.99" y="82.5" width="100" height="40" as="geometry" />
        </mxCell>
      </root>
    </mxGraphModel>
  </diagram>
</mxfile>
